<?xml version="1.0" encoding="utf-8"?>
<!DOCTYPE svg PUBLIC "-//W3C//DTD SVG 1.0//EN" "http://www.w3.org/TR/2001/REC-SVG-20010904/DTD/svg10.dtd">
<svg version="1.0" xmlns="http://www.w3.org/2000/svg" width="500px" height="200px" viewBox="0 0 500 200" preserveAspectRatio="xMidYMid meet">
 <g fill="#000000">
  <path d="M82 162.7 c-10.2 -3.1 -17 -7 -25 -14.4 -8.1 -7.5 -14 -16.3 -17.7 -26.4 -2.5 -6.8 -2.8 -8.6 -2.7 -21.9 0 -13.2 0.2 -15.1 2.6 -21.2 7.3 -19.2 20.2 -32.4 39.3 -40.1 l8 -3.2 159 -0.3 c110.4 -0.2 160.7 0 164.6 0.8 10.6 2 18.5 5.8 31.4 15.2 6.1 4.4 14.3 17.2 18.1 28 3.5 9.8 4.4 26.3 1.9 35.7 -6.4 24.7 -23.8 42.4 -47.6 48.6 -4.9 1.3 -27.2 1.5 -165 1.4 l-159.4 0 -7.5 -2.2z m323.1 -11.7 c9.6 -1.8 20.8 -8.1 28.2 -16 10.3 -10.9 14.7 -21.3 14.7 -35 0 -25 -20.7 -47.7 -46.5 -51 -5.4 -0.7 -57.2 -1 -157.5 -0.8 l-149.5 0.3 -6.6 2.2 c-18.6 6.4 -32.1 21.6 -36.5 41.3 -5.4 23.9 13.2 51.3 39.8 58.4 4.5 1.2 29 1.5 156.9 1.5 96.5 0.1 153.6 -0.3 157 -0.9z"/>
  <path d="M89.8 147.4 c-18.8 -4.5 -31.7 -19.3 -34.1 -38.9 -2.2 -17.2 1.6 -31.6 11 -41.6 6.3 -6.7 11.5 -10.2 19.4 -13.1 l6.4 -2.3 156 0 c148.6 0 156.3 0.1 162 1.8 3.3 1 8.2 3.1 10.8 4.5 6.3 3.4 14.8 12.6 18.4 19.9 2.7 5.7 2.8 6.2 2.8 22.3 l0 16.5 -3.4 6.8 c-6.1 12.5 -18.1 21.7 -31.9 24.6 -3.7 0.8 -50.2 1.1 -158.5 1 -127.1 -0.1 -154.2 -0.3 -158.9 -1.5z m30.7 -24.9 l2.2 -6 15.4 -0.3 15.5 -0.2 2.4 6.5 2.4 6.5 10.8 0 10.8 0 0 -2.5 c0 -2.1 -0.5 -2.5 -2.9 -2.5 -2.7 0 -3.2 -0.6 -6.1 -7.7 -1.7 -4.3 -6.6 -16.2 -10.8 -26.5 l-7.7 -18.7 -16.7 -0.1 -16.8 0 0 3 c0 2.7 0.3 3 3 3 2.7 0 3 0.3 3 3.1 0 1.7 -0.6 4.5 -1.4 6.2 -1.1 2.4 -10.4 24.5 -15.3 36.5 -0.3 0.6 -1.8 1.2 -3.4 1.2 -2.4 0 -2.9 0.4 -2.9 2.5 0 2.6 0 2.6 8.1 2.3 l8.1 -0.3 2.3 -6z m130.9 4.6 c1.2 -1.3 1.7 -3.9 1.9 -9.4 0.2 -6.4 -0.1 -7.9 -2 -10.6 -2.9 -3.8 -2.9 -7.4 -0.2 -11 1.8 -2.4 2.1 -4.4 2.3 -11.9 0.2 -14.1 2.4 -13.2 -33.6 -13.2 l-29.8 0 0 3 c0 2.7 0.3 3 3 3 l3 0 0 23.5 0 23.5 -2.5 0 c-2 0 -2.5 0.5 -2.5 2.5 l0 2.5 29.3 0 c27.3 0 29.5 -0.1 31.1 -1.9z m71.8 0.2 c1.6 -1.5 1.8 -3.6 1.8 -26 l0 -24.3 3 0 c2.7 0 3 -0.3 3 -3 l0 -3 -11.9 0 -11.8 0 -0.7 3.8 c-0.3 2 -0.6 13.7 -0.6 25.8 0 25.1 0.6 23.4 -8.5 23.4 -9.2 0 -8.5 2.1 -8.5 -27.1 l0 -25.9 -12.6 0 -12.5 0 0.3 2.8 c0.2 2.1 0.9 2.8 3.1 3 l2.7 0.3 0 23.8 c0 22.5 0.1 23.8 2 25.9 2 2.1 2.7 2.2 25.7 2.2 20.6 0 23.9 -0.2 25.5 -1.7z m71.7 -0.9 c1.9 -2.4 2.1 -4 2.1 -16 l0 -13.4 -18.5 0 -18.5 0 0 -10 0 -10.1 8.8 0.3 c8.7 0.3 8.7 0.3 9 3.1 l0.3 2.8 9.2 -0.3 9.2 -0.3 0.3 -3.4 c0.3 -2.4 -0.3 -4 -1.9 -5.7 -2.2 -2.4 -2.3 -2.4 -25.6 -2.4 -29.5 0 -27.3 -1.4 -27.3 18 l0 14 17.5 0 17.6 0 -0.3 10.3 -0.3 10.2 -8 0 -8 0 -0.5 -3 -0.5 -3 -8.5 0 -8.5 0 -0.3 3.7 c-0.2 2.7 0.3 4.3 1.7 5.7 2 2 3.2 2.1 25.5 2.1 l23.5 0 2 -2.6z"/>
  <path d="M128 106.2 c0 -1.5 1.6 -6.3 3.5 -10.7 3.2 -7.5 3.6 -8 6.7 -8.3 3.3 -0.3 3.3 -0.2 6.6 8 1.8 4.6 3.2 9.5 3.2 11.1 l0 2.7 -10 0 -10 0 0 -2.8z"/>
  <path d="M216 114.5 l0 -9.6 8.8 0.3 8.7 0.3 0.3 7.8 c0.2 5 -0.1 8.4 -0.9 9.3 -0.8 1 -3.5 1.4 -9 1.4 l-7.9 0 0 -9.5z"/>
  <path d="M216 86 l0 -9.1 8.8 0.3 8.7 0.3 0 8.5 0 8.5 -8.7 0.3 -8.8 0.3 0 -9.1z"/>
 </g>
 <g fill="#ffffff">
  <path d="M88.2 153.4 c-28.7 -7.7 -46.4 -36.8 -39.7 -65.3 4.5 -19 18.2 -34.2 36.4 -40.4 l6.6 -2.2 152.5 -0.3 c102.3 -0.2 155.1 0.1 160.5 0.8 15.4 2 30.1 11.4 38.3 24.3 6.1 9.8 8.2 17.2 8.2 29.7 0 16.9 -3.6 26.3 -14.7 38 -7.4 7.9 -18.6 14.2 -28.2 16 -3.4 0.6 -61.5 1 -160 0.9 -130.5 0 -155.4 -0.3 -159.9 -1.5z m316 -8.5 c13.8 -2.9 25.8 -12.1 31.9 -24.6 3.4 -6.7 3.4 -7 3.4 -20.3 0 -12.8 -0.2 -13.8 -2.8 -19.3 -3.6 -7.3 -12.1 -16.5 -18.4 -19.9 -2.6 -1.4 -7.5 -3.5 -10.8 -4.5 -5.7 -1.7 -13.3 -1.8 -159 -1.8 l-153 0 -6.4 2.3 c-21.4 7.7 -33.6 28 -30.3 50.4 2.1 13.8 11.4 27.3 23.1 33.2 11.1 5.7 4.2 5.4 166.8 5.5 106.1 0.1 151.8 -0.2 155.5 -1z"/>
  <path d="M109.2 132.2 l-10.3 -0.3 0.3 -5.7 c0.3 -5.3 0.5 -5.7 2.8 -5.6 3.1 0 2.8 0.6 10.6 -18.3 3.6 -8.7 7.1 -17.1 7.9 -18.8 1.4 -3 1.4 -3 -1.5 -3.3 -3 -0.3 -3 -0.4 -3 -6.3 l0 -5.9 19.8 0 19.7 0.1 7.7 18.7 c4.2 10.3 9.1 22.2 10.8 26.5 3 7.2 3.4 7.8 5.9 7.5 2.5 -0.3 2.6 -0.1 2.9 5.5 l0.3 5.7 -13.8 0 -13.9 0 -2.4 -6.5 -2.5 -6.6 -12.4 0.3 -12.4 0.3 -2.1 5.7 c-1.2 3.2 -2.6 6.1 -3.1 6.5 -0.6 0.5 -5.6 0.7 -11.3 0.5z m34.9 -28.4 c-5.1 -12.6 -6 -14.3 -6.7 -12.3 -0.4 1.1 -2 4.8 -3.5 8.3 l-2.8 6.2 6.9 0 c6.8 0 6.9 0 6.1 -2.2z"/>
  <path d="M187.8 131.3 c-0.2 -0.5 -0.3 -2.8 -0.3 -5.3 0 -4.2 0.2 -4.5 2.8 -4.8 l2.7 -0.3 0 -20.5 0 -20.4 -3 0 -3 0 0 -6 0 -6 32.8 0 c40 0 36.7 -1.5 36.7 16.1 0 10.4 -0.3 12.1 -2.1 14.6 l-2.1 2.8 2.1 2.8 c1.8 2.5 2.1 4.3 2.1 13.2 0 15.7 3 14.5 -36.1 14.5 -17.8 0 -32.4 -0.3 -32.6 -0.7z m41.8 -11.5 c0.5 -0.7 0.9 -3.5 0.9 -6.3 l0 -5 -5.8 -0.3 -5.7 -0.3 0 6.6 0 6.5 4.9 0 c2.7 0 5.2 -0.5 5.7 -1.2z m0.8 -33.8 l0.1 -5.5 -5.8 -0.3 -5.7 -0.3 0 6.1 0 6.1 5.7 -0.3 5.7 -0.3 0 -5.5z"/>
  <path d="M269 129.8 c-1.9 -2.1 -2 -3.4 -2 -25.9 l0 -23.8 -2.7 -0.3 c-2.7 -0.3 -2.8 -0.6 -3.1 -6.1 l-0.3 -5.7 15.6 0 15.5 0 0 25.9 c0 28.3 -0.2 27.1 5.8 27.1 5.1 0 5.1 0.1 5.4 -27 l0.3 -25.5 15.3 -0.3 15.2 -0.3 0 6.1 0 6 -3 0 -3 0 0 24.3 c0 22.4 -0.2 24.5 -1.8 26 -1.6 1.5 -5.1 1.7 -28.5 1.7 -26.1 0 -26.7 0 -28.7 -2.2z"/>
  <path d="M341 130 c-1.8 -1.8 -2 -3.1 -1.8 -8.8 l0.3 -6.7 11.5 0 11.5 0 0.5 3 c0.5 2.9 0.7 3 5.5 3 l5 0 0.3 -7.2 0.3 -7.3 -17.6 0 -17.5 0 0 -17 c0 -15.7 0.2 -17.2 2 -19 1.9 -1.9 3.3 -2 28.3 -2 l26.4 0 2.2 2.4 c1.9 2 2.2 3.3 1.9 8.7 l-0.3 6.4 -12.2 0.3 -12.2 0.3 -0.3 -2.8 c-0.3 -2.7 -0.6 -2.8 -6 -3.1 l-5.8 -0.3 0 7.1 0 7 18.5 0 18.5 0 0 16.4 c0 15 -0.2 16.5 -2.1 19 l-2 2.6 -26.5 0 c-25.3 0 -26.5 -0.1 -28.4 -2z"/>
 </g>
</svg>