<?xml version="1.0" encoding="utf-8"?>
<!DOCTYPE svg PUBLIC "-//W3C//DTD SVG 1.0//EN" "http://www.w3.org/TR/2001/REC-SVG-20010904/DTD/svg10.dtd">
<svg version="1.0" xmlns="http://www.w3.org/2000/svg" width="836px" height="132px" viewBox="0 0 836 132" preserveAspectRatio="xMidYMid meet">
 <g fill="#ffffff">
  <path d="M144 100.7 c0 -0.2 0.9 -3 2 -6.2 1.1 -3.2 2 -6.2 2 -6.7 0 -0.4 -8.5 -0.8 -18.9 -0.8 l-18.9 0 2.6 -8 2.6 -8 19 -0.2 19 -0.3 1.8 -4.8 c1 -2.7 1.6 -5.3 1.3 -5.8 -0.4 -0.5 -9.6 -0.9 -21 -0.9 l-20.3 0 2.6 -8 2.6 -8 21.2 0 21.1 0 1.9 -6.7 2 -6.8 23.7 -0.3 c13 -0.1 23.7 0.1 23.7 0.5 0 0.5 -1.1 4.2 -2.4 8.3 l-2.4 7.5 -15.5 0.3 -15.5 0.2 -1.6 4.7 c-0.9 2.6 -1.6 5 -1.6 5.5 0 0.4 6.7 0.8 14.9 0.8 l14.9 0 -2.6 8 -2.6 8 -15.1 0 -15.2 0 -4.3 14 -4.3 14 -8.4 0 c-4.6 0 -8.3 -0.2 -8.3 -0.3z"/>
  <path d="M251.8 91.5 c-3.2 -1.8 -4.4 -6.4 -3.1 -11.6 0.9 -3.3 1.1 -3.4 6.2 -3.7 l5.2 -0.3 -0.3 3.8 c-0.3 3.5 -0.1 3.8 2.4 4.1 3.1 0.4 5.8 -2.8 5.8 -7 0 -2.2 -1.1 -3.6 -5 -6.4 -5.7 -4.1 -7 -6 -7 -10.2 0 -10.8 9.1 -20.1 19.7 -20.2 8.6 0 12.4 4.3 10.7 12.3 l-0.9 4.2 -5.3 0.3 -5.3 0.3 0.3 -3.8 c0.3 -3.6 0.2 -3.8 -2.7 -3.8 -2.3 0 -3.3 0.7 -4.3 2.8 -1.9 3.9 -0.8 6.1 4.7 9.7 6.3 4 7.8 7.3 6.1 13.7 -2.8 11.3 -8.2 16.3 -18.2 16.9 -4.5 0.3 -7.1 0 -9 -1.1z"/>
  <path d="M386.3 92 c-4 -1.6 -5.5 -7.7 -3.3 -13.4 0.8 -2.3 1.5 -2.6 5.9 -2.6 l5 0 -0.2 3.8 c-0.2 3.3 0.1 3.7 2.5 4 2.1 0.3 3 -0.3 4.2 -2.7 2.4 -4.5 2 -6.7 -1.6 -9.2 -7.3 -5 -8.8 -7 -8.8 -11.8 0.1 -9.6 7 -18.4 15.5 -19.6 9.5 -1.5 14.8 1.5 14.8 8.3 0 7.3 -0.8 8.2 -6.8 8.2 l-5.4 0 0.8 -2.7 c0.4 -1.6 0.6 -3.4 0.4 -4 -0.7 -2.1 -5.1 -1.5 -6.7 0.9 -2.4 3.3 -2 6.5 1 8.5 7.6 5.3 9.6 7.8 9.6 12 -0.1 5.2 -3.5 13.3 -7 16.5 -4.6 4.3 -14.1 6.1 -19.9 3.8z"/>
  <path d="M418.8 91.5 c-3.3 -1.8 -4.3 -6 -2.8 -11.4 l1.1 -4.1 5.4 0 5.5 0 -1.1 2.7 c-1.3 3.5 -0.5 5.3 2.5 5.3 3 0 5.6 -3.4 5.6 -7.2 0 -2.2 -1.1 -3.6 -5 -6.4 -5.7 -4.1 -7 -6 -7 -10.2 0 -10.9 9.1 -20.1 19.8 -20.2 8.8 0 12.6 4.7 10.5 13.1 -0.9 3.3 -1.1 3.4 -6.1 3.7 l-5.2 0.3 0.3 -3.8 c0.2 -3.6 0 -3.8 -2.8 -3.8 -2.3 0 -3.3 0.7 -4.3 2.8 -1.9 3.9 -0.8 6.1 4.7 9.7 7.9 5 8.8 10 3.5 20.7 -3.2 6.7 -7.5 9.4 -15.7 9.9 -4.3 0.3 -7 0 -8.9 -1.1z"/>
  <path d="M454.3 92 c-3.6 -1.5 -5.6 -5.5 -4.8 -9.7 1.1 -6.3 7.6 -26.5 10.1 -31.5 3.9 -7.8 11.1 -11.5 20.3 -10.5 9.6 1.1 10.4 6.2 4.3 25.7 -4.2 13.5 -6.9 19.5 -9.9 22.2 -4.6 4.2 -14.4 6 -20 3.8z m12.6 -9.7 c3 -2.5 11.6 -30 10 -31.9 -1.6 -2 -4.3 -1.7 -6.3 0.5 -1 1.1 -3.7 8.1 -6.1 15.8 -4.3 13.8 -4.5 17.3 -1.1 17.3 0.8 0 2.3 -0.8 3.5 -1.7z"/>
  <path d="M529.5 91.8 c-5.7 -3.1 -5.8 -7.1 -0.4 -24.3 4.7 -15 6.6 -19 10.6 -22.6 5.1 -4.8 14.6 -6.4 20.2 -3.4 5.4 2.8 5.4 6.8 0 24 -4.7 15 -6.6 19 -10.6 22.6 -4.8 4.5 -14.9 6.4 -19.8 3.7z m13.3 -9.8 c1.8 -2 10.2 -26.9 10.2 -30.3 0 -2.4 -2.6 -3.2 -5.5 -1.9 -2 0.9 -3.2 3.6 -7 15.4 -2.5 7.8 -4.5 15 -4.5 15.9 0 3.2 4.1 3.7 6.8 0.9z"/>
  <path d="M599.9 91.9 c-3.4 -1.3 -5.3 -5.8 -4.4 -10.5 1.7 -9.3 9.6 -31.1 12.5 -34.6 5.5 -6.6 17.9 -8.9 23 -4.3 2.3 2.1 2.7 8.5 0.8 14.6 -1.1 3.8 -1.2 3.9 -6 3.9 l-5 0 0.8 -3.2 c1.4 -6 1.1 -8.3 -1.2 -8.6 -3.4 -0.5 -5.3 3 -10 17.9 -3.9 12.5 -4.3 14.5 -3 15.7 1.9 2 4.2 0.9 6.6 -3 2.5 -4.1 2.5 -5.8 0.1 -5.8 -1.7 0 -1.8 -0.4 -0.9 -4 l1 -4 7.4 0 c4.1 0 7.4 0.1 7.4 0.3 0 2 -5.6 16.1 -7.6 19 -4.2 6.4 -13.9 9.4 -21.5 6.6z"/>
  <path d="M215 91.3 c0 -0.5 3.5 -11.9 7.7 -25.5 l7.8 -24.8 13.2 0 13.1 0 -1.6 5 -1.6 5 -7.8 0 c-8.5 0 -8.5 0 -10.4 7.5 -0.6 2.5 -0.5 2.5 6.1 2.5 6.6 0 6.7 0 6.1 2.5 -1.9 7.4 -2 7.5 -9.4 7.5 l-6.9 0 -1.5 5.3 -1.5 5.2 7.8 0.3 7.7 0.3 -1.6 4.9 -1.6 5 -12.8 0 c-7 0 -12.8 -0.3 -12.8 -0.7z"/>
  <path d="M280 89.3 c0.8 -2.4 11.3 -35.9 14.1 -45 l1.1 -3.3 8.7 0 c16.8 0 20 3.8 15.1 17.7 -3.5 9.9 -10.6 15.3 -20.1 15.3 l-3.5 0 -2.9 9 -2.9 9 -5.2 0 -5.3 0 0.9 -2.7z m26.1 -27.3 c2.5 -2.4 3 -3.7 2.7 -6.7 -0.3 -3.4 -0.6 -3.8 -3.4 -4.1 -2.9 -0.3 -3.1 -0.1 -4.7 5.7 -0.9 3.4 -1.7 6.5 -1.7 7.1 0 2.1 4.3 0.9 7.1 -2z"/>
  <path d="M314 91.3 c0 -0.5 3.5 -11.9 7.7 -25.5 l7.8 -24.8 8.8 0 c14.4 0 17.7 2.5 16.3 12.6 -0.7 5.5 -3.5 11 -7.5 14.8 -2.8 2.6 -3.1 3.6 -3.1 8.6 0 3.2 -0.3 7.8 -0.6 10.4 l-0.7 4.6 -5.2 0 -5.3 0 0.4 -3.7 c1.4 -14.3 1.3 -15.3 -0.6 -15.3 -1.4 0 -2.5 2.1 -5 9.5 l-3.2 9.5 -4.9 0 c-2.7 0 -4.9 -0.3 -4.9 -0.7z m27.3 -30.5 c2.1 -2.5 3.1 -6.2 2.3 -8.4 -0.4 -1 -1.6 -1.4 -3.8 -1.2 -2.9 0.3 -3.3 0.7 -4.9 6 -0.9 3.1 -1.4 5.9 -1.1 6.2 1 1.1 5.7 -0.6 7.5 -2.6z"/>
  <path d="M352.6 78.3 c2.4 -7.6 6 -19.1 8 -25.5 l3.7 -11.8 13 0 12.9 0 -0.6 2.5 c-1.9 7.5 -1.8 7.5 -10.5 7.5 l-7.9 0 -1.1 4.4 c-0.6 2.5 -1.1 4.7 -1.1 5 0 0.3 2.9 0.6 6.5 0.6 3.6 0 6.5 0.1 6.5 0.3 0 0.1 -0.6 2.2 -1.4 4.7 l-1.3 4.5 -7.1 0.3 -7.1 0.3 -1.1 4 c-0.6 2.2 -1.4 4.7 -1.7 5.5 -0.4 1.1 0.9 1.4 7.2 1.4 8.5 0 8.4 -0.2 5.5 7.5 l-1 2.5 -12.9 0 -12.9 0 4.4 -13.7z"/>
  <path d="M491 91.3 c0 -0.4 3.5 -11.8 7.8 -25.3 l7.8 -24.5 13.1 -0.3 13.1 -0.3 -1.6 5.1 -1.6 5 -7.7 0 -7.7 0 -1.6 4.7 c-0.9 2.6 -1.6 4.8 -1.6 5 0 0.2 3.2 0.3 7 0.3 3.9 0 7 0.1 7 0.3 0 0.2 -0.7 2.4 -1.6 5 l-1.6 4.6 -7.1 0.3 -7.1 0.3 -3.1 10 -3.1 10 -5.2 0.3 c-2.9 0.2 -5.2 -0.1 -5.2 -0.5z"/>
  <path d="M565.1 67.3 c4.3 -13.7 7.9 -25.1 7.9 -25.5 0 -1.2 17.3 -0.9 20.9 0.3 1.7 0.6 3.6 1.9 4.1 2.9 2.7 5.1 -0.2 15.6 -6.1 22.3 -2.9 3.3 -3.9 5.4 -3.9 7.9 0 1.8 -0.3 6.3 -0.7 10.1 l-0.6 6.7 -5.2 0 -5.2 0 0.5 -9.6 c0.4 -8.9 0.4 -9.6 -1.4 -9.2 -1.3 0.2 -2.5 2.7 -4.6 9.6 l-2.9 9.2 -5.3 0 -5.4 0 7.9 -24.7z m20.6 -6.9 c0.8 -1.3 1.6 -3.8 1.7 -5.6 0.1 -3.1 -0.1 -3.3 -3.3 -3.3 -3.2 0 -3.5 0.3 -5.2 5.4 -1 2.9 -1.7 5.7 -1.4 6.1 0.9 1.5 6.7 -0.3 8.2 -2.6z"/>
  <path d="M629.9 80.3 c2.1 -6.5 5.7 -18 8.1 -25.5 l4.3 -13.8 13 0 12.9 0 -0.6 2.5 c-1.9 7.5 -1.9 7.5 -10.4 7.5 l-7.9 0 -1.1 3.9 c-1.9 6 -1.8 6.1 5.3 6.1 3.6 0 6.5 0.1 6.5 0.3 0 0.2 -0.7 2.4 -1.6 5 l-1.6 4.7 -6.9 0 -6.8 0 -1.6 5.2 c-0.8 2.8 -1.5 5.3 -1.5 5.5 0 0.2 3.4 0.3 7.6 0.3 8.4 0 8.3 -0.2 5.4 7.5 l-1 2.5 -12.9 0 -12.9 0 3.7 -11.7z"/>
 </g>
</svg>