<?xml version="1.0" encoding="utf-8"?>
<!DOCTYPE svg PUBLIC "-//W3C//DTD SVG 1.0//EN" "http://www.w3.org/TR/2001/REC-SVG-20010904/DTD/svg10.dtd">
<svg version="1.0" xmlns="http://www.w3.org/2000/svg" width="320px" height="71px" viewBox="0 0 320 71" preserveAspectRatio="xMidYMid meet">
 <g fill="#ffffff">
  <path d="M32.7 58.9 c-11.8 -2.8 -18 -11.1 -18 -24.4 -0.1 -18.4 15 -29.6 32.6 -24.3 4.9 1.5 11.3 7.3 12.2 11.1 0.9 3.3 0.7 3.5 -3.2 4.3 -2.8 0.5 -3.3 0.3 -4.8 -2.5 -3.3 -6.5 -12.6 -9 -20.1 -5.5 -11.4 5.4 -12.2 24.6 -1.3 32.6 6.2 4.6 17.3 2.4 21.2 -4.1 3.2 -5.5 2.6 -6.1 -6.3 -6.1 l-8 0 0 -3.5 0 -3.5 11.5 0 11.5 0 0 13 0 13 -3.6 0 c-3.5 0 -3.6 -0.1 -3.2 -3 0.5 -3.6 0 -3.7 -2.9 -0.6 -1.3 1.3 -4.3 2.9 -6.7 3.5 -5.1 1.2 -5.6 1.2 -10.9 0z"/>
  <path d="M98.5 58.6 c-5.8 -1.6 -9.9 -5.7 -11.4 -11.3 -0.6 -2.1 -1.1 -11.3 -1.1 -20.4 l0 -16.7 3.5 -0.4 c2 -0.2 3.8 -0.2 4 0.1 0.3 0.2 0.5 8.6 0.5 18.6 l0 18.1 2.9 2.8 c3.6 3.5 9.6 4.4 13.9 2.2 5.9 -3 6.2 -4.3 6.2 -23.7 l0 -17.7 3.5 -0.4 c2 -0.2 3.7 -0.3 3.8 -0.2 0.1 0.1 0 9.2 -0.3 20.1 -0.5 18.5 -0.7 20 -2.7 22.9 -4.2 5.9 -13.9 8.4 -22.8 6z"/>
  <path d="M145 57.7 c0 -0.7 1.1 -4 2.4 -7.3 1.3 -3.2 5.4 -13.7 9.1 -23.2 l6.7 -17.3 4 0.3 4 0.3 7 18 c3.8 9.9 8 20.8 9.4 24.3 l2.4 6.3 -4.1 -0.3 c-4 -0.3 -4.2 -0.5 -6.3 -5.8 l-2.2 -5.5 -10.4 0 -10.4 0 -2.2 5.5 c-2 5.1 -2.4 5.5 -5.8 5.8 -2.6 0.2 -3.6 -0.1 -3.6 -1.1z m29.5 -18.4 c-0.4 -1 -2.1 -5.5 -3.7 -10 -1.7 -4.6 -3.3 -8.3 -3.7 -8.3 -0.9 0 -7.9 18.8 -7.3 19.5 0.3 0.3 3.9 0.5 8 0.5 6.7 0 7.3 -0.2 6.7 -1.7z"/>
  <path d="M219.9 56.3 c-2.7 -7.2 -16.9 -46.1 -16.9 -46.4 0 -0.3 1.8 -0.3 3.9 -0.1 l4 0.4 4.9 14.1 c2.7 7.8 5.7 16.6 6.6 19.5 1.6 4.8 3.6 6.9 3.6 4 0 -0.7 2.9 -9.4 6.4 -19.3 l6.4 -18 4.1 -0.3 4.1 -0.3 -2.3 6.3 c-1.3 3.5 -5.5 14.5 -9.2 24.6 l-6.7 18.2 -3.9 0 c-3.4 0 -4.1 -0.4 -5 -2.7z"/>
  <path d="M260 58.6 c0 -0.2 4.2 -11.3 9.4 -24.7 l9.4 -24.2 3.8 0 3.8 0 9.3 23.8 c5.1 13.1 9.3 24.2 9.3 24.7 0 0.4 -1.7 0.8 -3.8 0.8 -3.7 0 -3.9 -0.1 -5.9 -5.7 l-2 -5.8 -10.5 -0.3 -10.5 -0.3 -2.3 6.1 c-2.2 5.9 -2.3 6 -6.1 6 -2.2 0 -3.9 -0.2 -3.9 -0.4z m30 -18.3 c0 -1.7 -6.5 -19.3 -7.1 -19.3 -0.7 0 -7.9 17.8 -7.9 19.3 0 0.4 3.4 0.7 7.5 0.7 4.1 0 7.5 -0.3 7.5 -0.7z"/>
 </g>
</svg>