<?xml version="1.0" encoding="utf-8"?>
<!DOCTYPE svg PUBLIC "-//W3C//DTD SVG 1.0//EN" "http://www.w3.org/TR/2001/REC-SVG-20010904/DTD/svg10.dtd">
<svg version="1.0" xmlns="http://www.w3.org/2000/svg" width="1200px" height="551px" viewBox="0 0 1200 551" preserveAspectRatio="xMidYMid meet">
 <g fill="#ffffff">
  <path d="M405.8 549.7 c-9.7 -2.8 -13.1 -7.5 -13.1 -18.3 0.1 -12.1 3.1 -19.1 43 -98.7 31.3 -62.6 44.7 -90.2 43 -88.9 -23.9 18.8 -43.8 26.2 -58.9 21.8 -8.3 -2.4 -13.7 -6.9 -17.8 -15 -3.4 -6.7 -3.5 -7.2 -3.4 -18 0.1 -7.1 0.7 -12.8 1.7 -15.9 l1.5 -4.8 -12.3 12 c-25.6 24.7 -54.1 39.4 -76.5 39.4 -18.3 0 -28.9 -6 -38.5 -21.7 -0.9 -1.4 -2.1 -0.7 -9 4.9 -8.9 7.2 -24.6 15.5 -34.5 18.2 -4.6 1.2 -10.4 1.7 -20 1.8 -16.7 0 -24.5 -2.2 -36.3 -10.2 -9.2 -6.2 -10.8 -8 -18.5 -19.3 -9.8 -14.5 -16.9 -34.4 -19.3 -54.3 -1.7 -14.7 -1.3 -13.7 -6.7 -13.7 l-4.7 0 -6 11.2 c-10.3 19.2 -30.8 54.8 -37.6 65.3 -7.2 11 -15.1 18.9 -22.6 22.6 -3.9 1.9 -6.4 2.4 -13.3 2.4 -14.7 0 -20.2 -4.5 -20.8 -17.2 -0.7 -12.4 2.8 -19.7 21.1 -44.1 20.6 -27.5 31.3 -42.7 57.2 -81.6 20.4 -30.7 24.7 -36.6 28.7 -39.2 5.9 -4 11.8 -4.9 18.2 -3 5.9 1.8 9.3 4.8 10.6 9.6 0.6 2.3 2 4.2 4.1 5.4 4.8 2.9 7.2 9.3 7.7 20.9 0.4 9.4 0.5 9.7 2.6 9.1 22.9 -6.9 37.3 -12.8 51.3 -21 33.5 -19.7 51.3 -46.5 51.3 -77.7 0 -17.6 -5 -30.5 -16 -41.6 -12 -12.2 -27.8 -18.1 -48.2 -18.1 -55.4 0 -107.4 32.2 -122.2 75.6 -3.5 10.3 -6.3 15.2 -11.5 20.3 -8 7.8 -22.4 13.2 -30.4 11.6 -5.3 -1.1 -10.3 -5 -12.7 -10 -1.9 -4 -2.2 -5.8 -1.8 -13 0.4 -6.8 1 -9.5 3.7 -14.9 5.1 -10.3 17.2 -25.9 30.5 -39.1 38 -37.7 85.9 -61.6 136.6 -68 18.9 -2.4 42.5 -1.7 56.5 1.9 36.1 9 60.2 31.7 69.1 65.1 1.5 5.5 1.8 10.3 1.8 22.5 -0.1 13.5 -0.4 16.8 -2.8 25.5 -10.3 38.1 -39.4 69.1 -86 91.6 -15.2 7.4 -40.4 16.2 -56.8 19.9 -7 1.6 -9.8 2.7 -9.8 3.7 0 3.1 6.2 19.9 10 27.2 7.1 13.5 15.2 21.8 27 27.5 6.1 2.9 7.2 3.1 18 3.1 11.2 0 11.7 -0.1 19.4 -3.7 5.8 -2.8 9.5 -5.6 14.5 -10.5 5.9 -6.1 6.8 -7.6 9 -14.7 2.8 -9.4 10.5 -25.3 16.3 -33.9 19 -28.3 49.3 -51.3 79.3 -60.3 10.8 -3.2 27.8 -4.3 36.8 -2.4 7.2 1.5 17.9 6.8 23.6 11.8 l4.4 3.8 5.5 -2.9 c14.4 -7.9 34.4 -2 36.8 10.7 0.9 5 0.3 6.8 -8.8 26 -24.2 51.2 -28.9 74.6 -14.7 74.6 8.1 0 25.1 -11.7 36.6 -25.1 12.6 -14.8 26.7 -39.9 33.8 -60.4 4.4 -12.8 12.9 -29.8 17 -34.4 5 -5.5 8.3 -7.1 14.4 -7.1 10.2 0 15.9 4.2 18.2 13.3 1.3 5.5 0.1 13.7 -3.2 21.4 l-1.9 4.5 9.7 -9.3 c16 -15.1 30 -24.7 48.1 -32.7 18.5 -8.2 39.4 -8.4 52.9 -0.5 17.3 10.1 20.3 29.5 8.3 53.3 -4.6 9.1 -14.1 22.6 -25.7 36.5 -15.8 19 -21.4 28.5 -21.5 36.6 -0.1 8.1 7.8 10.8 18.2 6.2 13 -5.9 42 -32.1 58.9 -53.3 11 -13.7 26 -36.5 34.9 -52.6 3.9 -7.1 14 -28 22.5 -46.4 8.5 -18.4 23.2 -50.4 32.7 -71 35.2 -76.4 40.6 -86.2 51.3 -93.3 7.1 -4.7 12 -6 21 -5.5 8.1 0.4 11.1 1.8 15.1 7.1 1.6 2.1 2 4.2 2 9.5 -0.1 8.8 -2.5 14.4 -14.6 35.2 -21.7 37.3 -41.9 75.3 -71.2 133.8 l-19.7 39.3 9.2 -8 c16.1 -14.3 38.5 -27.3 53.7 -31.2 15.9 -4 33.4 -1.8 43.4 5.5 9.2 6.9 12.7 13.8 12.8 25.2 0.1 17.1 -9.2 34.7 -33.9 64.4 -18 21.5 -24.1 34.9 -18.7 40.9 7.3 8 25.8 -1.8 49.8 -26.5 10 -10.3 16.7 -18.6 28.6 -35.3 17.7 -24.9 36.7 -41.8 59.7 -53.1 18.6 -9.1 29.4 -12 44.8 -12 15 0 28.5 5 36.8 13.6 l3.1 3.2 6.1 -3.2 c5.3 -2.7 7 -3.1 14.1 -3.1 14.1 0 22.6 6.2 22.6 16.7 0 4.1 -1.5 8 -8.9 23.8 -15.8 33.3 -22.3 51.9 -22.5 64.3 -0.1 6.1 0.2 7.1 2.3 8.8 3 2.4 5.3 2 12.3 -2.3 9.6 -5.9 21.3 -4.6 24.6 2.7 3.3 7.2 0 17.7 -7.9 25.7 -5.9 5.9 -18.2 14 -25.7 16.9 -7.6 3 -23.1 3.8 -29.6 1.6 -17.3 -5.9 -26.7 -25.2 -22.4 -46 l1.5 -6.7 -9.1 8.8 c-12.1 11.7 -18.4 16.9 -28.6 23.5 -29.5 19.1 -53.6 23.9 -72.7 14.6 -10.7 -5.2 -18.2 -15.9 -20 -28.5 l-0.6 -4.3 -11.1 10 c-18.7 16.8 -34.5 26.5 -49.6 30.4 -9.8 2.6 -23.7 1.8 -31.3 -1.8 -8.4 -3.9 -13.2 -8 -16.2 -14.1 -7.9 -16.1 -1.4 -40.1 17.5 -64.6 21.4 -27.8 26.5 -34.9 29.2 -40.5 3.2 -6.8 3.4 -9.1 1.3 -12.2 -5 -7.2 -25.5 -0.7 -45.6 14.4 -24.9 18.7 -53.3 56.1 -73.6 96.7 -7.8 15.6 -10.9 19.7 -16.6 22.5 -6 2.9 -15 2.8 -20.7 -0.2 -9.6 -5 -10.4 -14.8 -2.7 -33.4 l2.5 -6.2 -9.6 8.6 c-19.2 17.1 -35.3 27 -50.2 30.8 -8.9 2.3 -23.6 1.7 -30.3 -1.3 -8.6 -3.8 -14.3 -8.8 -17.4 -15 -2.5 -5.1 -2.8 -6.7 -2.7 -15.7 0.1 -8.4 0.5 -11.3 3.1 -18.1 3.9 -10.7 10 -21.3 18.6 -32.1 21.7 -27.4 30.7 -41.2 30.7 -47 0 -2.8 -3.1 -6 -6.6 -6.9 -1.4 -0.4 -5.1 -0.1 -8.1 0.6 -14.4 3.2 -31.7 14.3 -48.8 31.5 -22 21.9 -32.8 38.3 -55.4 84 -22.6 45.6 -34.6 72.4 -62.3 140 -17 41.5 -19.4 46.5 -25.9 53.9 -7.5 8.5 -19.5 12.2 -30.1 9.3z m-57.3 -234.6 c16.6 -7.9 37.1 -27 52.9 -49.3 l4.8 -6.8 -2.1 -3.4 c-3.6 -5.8 -11.3 -12.2 -17 -14.1 -13.5 -4.4 -28.8 0.5 -42.8 13.9 -11 10.4 -17.1 19.8 -21.4 33.2 -2.8 8.5 -3 17.6 -0.6 22.2 4.2 7.8 15.2 9.6 26.2 4.3z m643.7 1.3 c10.3 -3.5 31.7 -20.7 44 -35.4 8.8 -10.5 15.8 -20.5 15.8 -22.6 0 -0.7 -2.5 -3.9 -5.5 -7.2 -7.9 -8.5 -14.9 -11.5 -25.9 -11 -7 0.2 -9.2 0.8 -15 3.8 -8.1 4.1 -20.1 14.9 -25.8 23.2 -7.7 11.4 -12.8 25.3 -12.8 34.7 0 5.6 3 12 6.7 14.3 3.6 2.2 12.4 2.3 18.5 0.2z"/>
 </g>
</svg>