<?xml version="1.0" encoding="utf-8"?>
<!DOCTYPE svg PUBLIC "-//W3C//DTD SVG 1.0//EN" "http://www.w3.org/TR/2001/REC-SVG-20010904/DTD/svg10.dtd">
<svg version="1.0" xmlns="http://www.w3.org/2000/svg" width="1267px" height="341px" viewBox="0 0 1267 341" preserveAspectRatio="xMidYMid meet">
 <g fill="#ffffff">
  <path d="M23 250.1 c0 -0.6 1.2 -3.5 2.7 -6.5 l2.7 -5.5 28.6 -0.3 28.6 -0.3 3.2 -2.5 c4 -3.1 14.4 -23.4 19.2 -37.6 l3.4 -10.2 -1.9 -4.2 c-1.4 -3.1 -6.2 -8.1 -18.3 -18.8 -15.9 -14.1 -19.2 -18 -19.2 -22.1 0 -4.7 14.5 -40.3 18.8 -46 5.2 -7 5.9 -7.1 56.2 -7.8 l45.1 -0.6 -1.1 2.7 c-1.5 4.1 -3.2 7 -4.4 7.8 -0.6 0.4 -13.8 0.8 -29.3 0.8 l-28.2 0 -3.5 3.1 c-5.9 5.2 -15.3 24.4 -16.3 33.5 -0.7 6.1 1.5 10.8 6.7 15.1 20.4 16.3 32 29.1 32 35.3 0 3.7 -6.4 21.6 -13.5 37.8 -7.4 16.8 -12.1 23 -19.1 25.3 -5.1 1.7 -92.4 2.6 -92.4 1z"/>
  <path d="M141 250.1 c0 -0.9 6.7 -16.8 14.5 -34.1 8.9 -19.9 16.7 -37.5 20.5 -46.6 2.1 -5 4.3 -10 4.9 -11 1.3 -2.1 4.9 -10.5 24 -54.4 2.2 -5.2 4.9 -11 5.8 -12.8 l1.7 -3.3 42 0.3 c39.7 0.3 42.3 0.4 45.3 2.2 3.6 2.2 6.3 7.8 6.3 12.9 0 4.6 -4.6 17.4 -12.8 35.7 -3.8 8.5 -8.4 18.9 -10.2 23 -6.3 14 -12.5 20.9 -20.6 22.9 -2.4 0.6 -12.4 2.2 -22.2 3.6 -9.7 1.3 -22.8 3.2 -29.1 4.2 l-11.3 1.7 -3 6.6 c-1.7 3.6 -4.6 10.3 -6.5 15 -1.9 4.7 -3.8 9 -4.2 9.5 -0.4 0.6 -1.8 3.5 -3 6.5 -1.3 3 -3.7 8.5 -5.3 12.3 l-3.1 6.7 -16.8 0 c-9.3 0 -16.9 -0.4 -16.9 -0.9z m79.3 -71.1 c6.5 -1.1 12.6 -2.4 13.6 -3 6.2 -3.3 12.8 -15.6 25.7 -48.2 10.9 -27.4 10.5 -28.8 -7.1 -28.8 l-11.1 0 -2.3 5.2 c-3.9 9 -12 27.7 -17.6 40.8 -16.2 38.2 -15.4 36 -13.7 36 0.4 0 6 -0.9 12.5 -2z"/>
  <path d="M279.7 250.1 c-9.7 -2 -10.7 -9.2 -3.5 -26.6 2.5 -6 6.4 -15.5 8.7 -21 2.3 -5.5 5 -11.9 6.2 -14.2 1.1 -2.3 3.7 -8.4 5.9 -13.5 2.1 -5.1 6.2 -14.7 9 -21.3 2.9 -6.6 7.2 -16.9 9.7 -22.9 2.5 -6.1 5.1 -11.9 5.8 -13 0.7 -1.2 2.5 -5.5 4.1 -9.6 3.3 -8.7 9.8 -16.1 16 -18.1 2.8 -0.9 15.6 -1.4 46.6 -1.6 l42.8 -0.4 -1 2.5 c-0.5 1.4 -1.7 3.7 -2.6 5.1 l-1.6 2.5 -22.9 0 c-12.5 0 -25 0.5 -27.8 1.1 -6.6 1.4 -11 5.8 -14.8 15 -1.7 4.1 -5.5 12.8 -8.3 19.4 -6.6 15.3 -12 28.3 -12 29 0 0.3 10.3 0.5 23 0.5 l23 0 -2.7 5.5 -2.7 5.5 -22.9 0.2 -22.9 0.3 -4 9 c-2.1 5 -5.7 13.3 -7.9 18.5 -2.3 5.2 -5.2 11.8 -6.4 14.5 -6.2 13.4 -7.1 18.6 -3.6 20.5 1.2 0.6 11.8 1 27.5 1 l25.6 0 -2.5 5.7 c-1.4 3.1 -2.7 5.8 -2.8 5.9 -0.8 0.6 -78 1.1 -81 0.5z"/>
  <path d="M389.3 248 c-3.7 -2.2 -4.8 -5.4 -3.9 -11.1 0.7 -4.1 1.5 -6.4 10.6 -27.4 2.9 -6.6 7.6 -17.6 10.5 -24.5 2.9 -6.9 7.7 -17.9 10.5 -24.5 10.7 -24.9 13.9 -32.4 19.8 -46.2 3.3 -7.8 6.8 -15.6 7.8 -17.4 2.4 -4.1 7.7 -6.8 15.6 -7.9 6.7 -1 84.8 -1.4 84.8 -0.4 0 0.3 -1 2.8 -2.1 5.5 l-2.1 4.9 -27.2 0 c-19.7 0 -27.8 0.4 -29.6 1.3 -3.3 1.7 -7.1 7.6 -11.3 17.7 -1.9 4.7 -6.5 15.5 -10.2 24 -3.7 8.5 -8.4 19.6 -10.5 24.5 -2.1 5 -6.2 14.4 -9 21 -2.9 6.6 -7.6 17.7 -10.5 24.6 -2.9 6.9 -6 14 -7 15.8 -2.1 4.1 -1.3 7.4 2 8.9 1.8 0.8 10.6 1.2 27.6 1.2 l24.9 0 -0.6 2.8 c-0.4 1.5 -1.3 4.2 -2.1 6 l-1.3 3.2 -41.8 0 c-39.7 0 -41.9 -0.1 -44.9 -2z"/>
  <path d="M498 244.9 c1.1 -2.8 2.8 -6.5 3.6 -8.2 0.9 -1.7 3.6 -7.6 5.9 -13.1 2.4 -5.6 6.6 -15.5 9.5 -22.1 2.8 -6.6 7.1 -16.5 9.5 -22 2.4 -5.5 6.9 -15.8 10 -23 3.1 -7.1 6.9 -15.9 8.4 -19.5 3.9 -9.1 12.5 -28.8 17.4 -39.8 l4.2 -9.2 17.7 0 17.8 0 -1.6 3.7 c-2.7 6.1 -13.3 31.1 -17.1 40.3 -1.9 4.7 -4.5 10.8 -5.8 13.5 -1.3 2.8 -3.9 8.8 -5.8 13.5 -2 4.7 -5.6 13.2 -8 19 -5.3 12.2 -15.2 35.6 -20.7 48.5 -2.1 5 -5.2 12.2 -6.8 16 l-3.1 7 -18.5 0.3 -18.6 0.2 2 -5.1z"/>
  <path d="M549.6 248.8 c0.5 -0.7 4.5 -6.7 8.9 -13.3 4.5 -6.6 13.9 -20.5 21 -31 7.1 -10.4 16.1 -23.7 20 -29.5 3.9 -5.8 14.3 -21.1 23 -34 8.7 -12.9 18.7 -27.8 22.3 -33 13.1 -19.2 14.4 -19.9 37.1 -20 l16.4 0 -0.6 6.8 c-1.2 12.1 -3.6 42 -6.2 74.7 -1.3 17.6 -3.1 38.3 -3.9 46 -0.8 7.7 -1.8 18.6 -2.2 24.3 l-0.7 10.2 -17.8 0 -17.9 0 0.5 -4.2 c0.3 -2.4 1 -8.1 1.6 -12.8 2 -16.7 4.9 -43.5 4.9 -46.2 l0 -2.8 -14.9 0 -14.9 0 -12.7 19.3 c-7 10.5 -16.9 25.4 -21.9 32.9 l-9.1 13.8 -16.8 0 c-13.2 0 -16.7 -0.3 -16.1 -1.2z m107.8 -78 c0.9 -4.1 3.7 -36.1 3.2 -36.5 -0.8 -0.8 -22.6 35.5 -22.6 37.6 0 0.7 3.4 1.1 9.5 1.1 9 0 9.5 -0.1 9.9 -2.2z"/>
  <path d="M706 249.3 c-7.4 -2.7 -8 -10.6 -1.9 -25.1 2.3 -5.3 5.6 -13.1 7.4 -17.2 1.8 -4.1 4.5 -10.4 6 -14 1.5 -3.6 3.5 -8.3 4.6 -10.5 1 -2.2 3.9 -8.7 6.3 -14.5 2.4 -5.8 6.7 -15.9 9.6 -22.5 2.9 -6.6 7.2 -16.5 9.5 -22 2.4 -5.5 6.8 -15.6 9.7 -22.5 l5.4 -12.5 18.1 -0.3 18.1 -0.2 -6 14.2 c-3.3 7.9 -7.8 18.6 -10 23.8 -2.2 5.2 -6.2 14.7 -8.8 21 -2.7 6.3 -7.4 17.4 -10.5 24.5 -3.1 7.2 -7.6 17.7 -10 23.5 -2.4 5.8 -6.6 15.8 -9.4 22.3 -2.8 6.5 -5.1 13.1 -5.1 14.6 0 5.1 1.6 5.6 23.1 6.1 l19.8 0.5 -2.6 5.8 -2.6 5.7 -34.6 -0.1 c-19 0 -35.3 -0.3 -36.1 -0.6z"/>
  <path d="M792.3 248.8 c0.3 -0.7 2.6 -6 5.1 -11.8 2.4 -5.8 7 -16.3 10.1 -23.5 3.1 -7.1 7.6 -17.5 10 -23 2.4 -5.5 6.9 -15.8 10 -23 3.1 -7.1 7.7 -17.7 10.2 -23.5 2.5 -5.8 6.8 -15.7 9.5 -22 2.8 -6.3 7.1 -16.4 9.7 -22.5 l4.7 -11 18.1 -0.3 18.1 -0.2 -4.3 10.2 c-6.5 15.5 -14.7 34.9 -20.5 48.3 -2.8 6.6 -6.9 16.1 -9 21 -2.1 5 -6.6 15.5 -10 23.5 -3.4 8 -7.8 18.3 -9.7 23 -1.9 4.7 -4.2 10.1 -5.1 12 -0.8 1.9 -3.4 8 -5.7 13.5 l-4.1 10 -18.8 0.3 c-14.9 0.2 -18.7 0 -18.3 -1z"/>
  <path d="M849.2 249 c-1.2 -0.5 -2.7 -2.1 -3.3 -3.4 -1.8 -3.8 2.6 -11.6 11.4 -20.6 4 -4.1 12.7 -13.3 19.2 -20.5 11 -12.1 16.2 -17.6 33.6 -36 3.6 -3.9 12.1 -13.1 18.9 -20.5 6.8 -7.4 18.2 -19.7 25.4 -27.3 7.2 -7.5 13.6 -14.7 14.2 -15.9 2.5 -4.7 2.1 -4.8 -28.2 -4.8 -15.6 0 -28.4 -0.3 -28.4 -0.7 0 -0.5 0.9 -3 1.9 -5.8 l1.9 -5 44 -0.3 c26.6 -0.1 45 0.2 46.6 0.7 4.1 1.6 6 5.4 4.7 9.3 -1.1 3.1 -11 14.6 -28 32.3 -4.3 4.4 -17.4 18.6 -29.1 31.5 -11.8 12.9 -26.6 29.1 -33 36 -24.6 26.5 -31.1 34.2 -30.8 36.4 0.3 2.1 0.6 2.1 32.2 2.4 24.7 0.2 31.7 0.5 31.4 1.5 -0.3 0.6 -1.3 3.6 -2.3 6.5 l-1.9 5.2 -49 -0.1 c-27 0 -50.1 -0.4 -51.4 -0.9z"/>
  <path d="M977.3 248.5 c-8.5 -3.7 -7.6 -7.9 10.2 -49.5 3.7 -8.5 8.4 -19.5 10.5 -24.5 2.1 -4.9 6.4 -14.8 9.5 -22 3.1 -7.1 7.8 -18.2 10.5 -24.5 9.2 -22 13.5 -30.4 17.3 -33.7 6.8 -6 9.5 -6.3 55.4 -6.3 l41.4 0 -2.7 5 -2.7 5 -24.1 0 c-14.5 0 -25.7 0.5 -28.1 1.1 -7.4 2.1 -10.2 6.6 -24.3 40.4 -2.8 6.6 -6 14.4 -7.1 17.3 l-2.1 5.2 23 0 c12.7 0 23 0.2 23 0.5 0 0.2 -1.2 2.9 -2.7 6 l-2.7 5.5 -22.9 0.2 -22.9 0.3 -4 9 c-4.4 10 -10.8 24.7 -16.2 37.3 -3.8 8.8 -4.5 13.2 -2.3 15.1 0.9 0.7 10.2 1.2 27.4 1.3 l26.1 0.3 -2.5 6.3 -2.5 6.2 -40.7 0 c-32.2 -0.1 -41.3 -0.4 -43.8 -1.5z"/>
  <path d="M1081 249.6 c0 -0.4 0.7 -2.1 1.6 -3.8 1.6 -3 4.5 -9.9 15.4 -35.8 2.6 -6.3 7.4 -17.3 10.5 -24.5 3.1 -7.1 7.3 -16.8 9.2 -21.5 1.9 -4.7 4.4 -10.5 5.5 -13 1.2 -2.5 4 -9 6.3 -14.5 2.3 -5.5 7.9 -18.7 12.5 -29.2 l8.3 -19.3 47.5 0 47.4 0 3.4 3.4 c3.1 3.1 3.4 3.9 3.4 9.6 0 3.4 -0.5 7.1 -1.2 8.3 -0.6 1.2 -3.5 7.8 -6.4 14.7 -2.8 6.9 -7.5 17.9 -10.4 24.5 -2.9 6.6 -7.2 16.5 -9.5 22 -2.4 5.5 -6.9 15.9 -10 23 -3.1 7.2 -7.3 16.8 -9.2 21.4 -5.2 12.6 -10.9 23.6 -14.3 27.4 -5.8 6.7 -5.8 6.7 -60.6 7.4 -27.2 0.3 -49.4 0.3 -49.4 -0.1z m74.6 -14.5 c4.6 -2.8 6.6 -6.7 23.9 -46.6 10.2 -23.5 12.7 -29.3 15 -34.5 11 -24.6 18.5 -43.9 18.5 -47.6 0 -5.7 -1.8 -6.4 -17.6 -6.4 l-14.4 0 -1.8 3.7 c-1 2.1 -3.4 7.6 -5.2 12.3 -1.8 4.7 -3.7 9 -4.1 9.5 -0.4 0.6 -3 6.4 -5.7 13 -2.7 6.6 -7.3 17.4 -10.2 24 -2.8 6.6 -7.3 17.2 -10 23.5 -2.7 6.3 -7.1 16.9 -10 23.5 -8.9 20.6 -11 25.7 -11 26.6 0 0.5 6.6 0.9 14.8 0.9 12.7 0 15.1 -0.3 17.8 -1.9z"/>
 </g>
</svg>