<?xml version="1.0" encoding="utf-8"?>
<!DOCTYPE svg PUBLIC "-//W3C//DTD SVG 1.0//EN" "http://www.w3.org/TR/2001/REC-SVG-20010904/DTD/svg10.dtd">
<svg version="1.0" xmlns="http://www.w3.org/2000/svg" width="1044px" height="449px" viewBox="0 0 1044 449" preserveAspectRatio="xMidYMid meet">
 <g fill="#ffffff">
  <path d="M101.6 429 c-5.8 -2.9 -8.3 -5.6 -11.9 -12.9 -3.1 -6.3 -3.2 -7 -3.2 -19.1 0 -11.4 0.2 -13 2.6 -18 3.4 -7.2 8.4 -12.9 13.4 -15.1 4.5 -2.1 14.7 -2.5 19.2 -0.8 2.2 0.8 3 0.7 4 -0.7 0.7 -1 1.5 -1.6 1.7 -1.3 0.7 0.7 3.7 26.1 3.2 26.6 -0.3 0.3 -2 -2.6 -4 -6.3 -8.3 -16.5 -15.9 -21 -20.8 -12.6 -4.5 7.6 -4.9 29.5 -0.9 40.4 3 7.8 8.6 12.8 14.4 12.8 5.1 0 8.1 -1.9 10.7 -6.8 3 -5.8 2.5 -0.6 -0.6 5.6 -3.6 7.2 -8.7 10.2 -17.5 10.2 -4.3 -0.1 -7.7 -0.7 -10.3 -2z"/>
  <path d="M161.6 429.5 c-6.1 -2.2 -10.8 -6.6 -14.6 -13.9 -3.1 -6.1 -3.5 -7.8 -3.8 -16.6 -0.7 -17.3 5 -29.5 16.4 -35 3.9 -1.9 5.7 -2.2 12.4 -1.8 6.5 0.4 8.8 1 12.7 3.4 9.2 5.7 14.3 16.7 14.3 30.9 0 16.2 -6.5 28.5 -17.7 33.2 -4.1 1.7 -14.7 1.6 -19.7 -0.2z m15.3 -3.2 c7 -5.9 6.7 -39.4 -0.5 -54 -2.8 -5.9 -5.4 -7.8 -9.1 -6.8 -4.1 1 -6.6 8.1 -7.1 20.8 -0.7 17.3 2.7 33.4 8.5 39.1 3 3 5.3 3.3 8.2 0.9z"/>
  <path d="M673.7 428.5 c-1.7 -8.9 -3.8 -23.7 -3.4 -24.1 0.2 -0.2 1.7 1.5 3.2 3.8 7.1 10.7 12.6 15.8 19.4 17.8 4.7 1.3 9.8 -0.5 11.7 -4.2 3 -5.8 0 -10.3 -14 -20.7 -15.2 -11.3 -18.6 -15.7 -18.6 -24.1 0 -5.7 2.2 -10.3 6.6 -13.6 3.2 -2.5 4.8 -2.9 11.2 -3.3 4.1 -0.2 9.3 0.2 11.4 0.9 3.5 1 4.3 0.9 5.9 -0.6 1.1 -0.9 2.1 -1.5 2.3 -1.3 0.2 0.2 1.1 4.9 2 10.4 0.9 5.5 1.9 11.2 2.2 12.8 0.8 4 -0.8 3.3 -3.5 -1.6 -4.9 -8.6 -10.9 -15.4 -15.1 -17.1 -3.6 -1.4 -4.4 -1.4 -7.5 -0.2 -4 1.7 -5.9 5.4 -4.6 8.9 1.2 2.9 5.6 6.9 17.1 15.4 10.9 8 12.3 9.5 14.5 14.6 2.8 6.6 1.3 15.8 -3.3 21.1 -3.3 3.7 -9.2 5.6 -17.7 5.5 -4.4 0 -9.6 -0.6 -11.5 -1.3 -3.3 -1.1 -3.6 -1.1 -5.6 1.3 l-2.1 2.5 -0.6 -2.9z"/>
  <path d="M915.7 428.5 c-1.7 -8.9 -3.8 -23.7 -3.4 -24.1 0.2 -0.2 1.7 1.5 3.2 3.8 7.1 10.7 12.6 15.8 19.4 17.8 4.7 1.3 9.8 -0.5 11.7 -4.2 3 -5.8 0 -10.3 -14 -20.7 -15.2 -11.3 -18.6 -15.7 -18.6 -24.1 0 -5.7 2.2 -10.3 6.6 -13.6 3.2 -2.5 4.8 -2.9 11.2 -3.3 4.1 -0.2 9.3 0.2 11.4 0.9 3.5 1 4.3 0.9 5.9 -0.6 1.1 -0.9 2.1 -1.5 2.3 -1.3 0.2 0.2 1.1 4.9 2 10.4 0.9 5.5 1.9 11.2 2.2 12.8 0.8 4 -0.8 3.3 -3.5 -1.6 -4.9 -8.6 -10.9 -15.4 -15.1 -17.1 -3.6 -1.4 -4.4 -1.4 -7.5 -0.2 -4 1.7 -5.9 5.4 -4.6 8.9 1.2 2.9 5.6 6.9 17.1 15.4 10.9 8 12.3 9.5 14.5 14.6 2.8 6.6 1.3 15.8 -3.3 21.1 -3.3 3.7 -9.2 5.6 -17.7 5.5 -4.4 0 -9.6 -0.6 -11.5 -1.3 -3.3 -1.1 -3.6 -1.1 -5.6 1.3 l-2.1 2.5 -0.6 -2.9z"/>
  <path d="M211.8 426.4 l4.2 -3.6 0 -26.3 0 -26.3 -4.2 -3.6 -4.3 -3.6 22.2 0 c20.3 0 22.2 0.1 22.7 1.8 0.9 3.3 2.8 19.3 2.4 19.8 -0.3 0.2 -3.8 -4.1 -7.8 -9.6 -7.1 -9.7 -7.5 -10 -11.2 -10 l-3.8 0 0 15 0 15 2.9 0 c2.3 0 4.1 -1.2 7.5 -4.7 l4.6 -4.8 -0.1 11 0 11 -4 -4.7 c-3.4 -4 -4.7 -4.8 -7.5 -4.8 l-3.4 0 0 12.3 0 12.3 5.3 3.7 5.2 3.7 -17.5 0 -17.5 0 4.3 -3.6z"/>
  <path d="M265.8 426.4 l4.2 -3.6 0 -26.3 0 -26.3 -4.2 -3.6 -4.3 -3.6 22.2 0 c20.3 0 22.2 0.1 22.7 1.8 0.9 3.3 2.8 19.3 2.4 19.8 -0.3 0.2 -3.8 -4.1 -7.8 -9.6 -7.1 -9.7 -7.5 -10 -11.2 -10 l-3.8 0 0 15 0 15 2.9 0 c2.3 0 4.1 -1.2 7.5 -4.7 l4.6 -4.8 -0.1 11 0 11 -4 -4.7 c-3.4 -4 -4.7 -4.8 -7.5 -4.8 l-3.4 0 0 12.3 0 12.3 5.3 3.7 5.2 3.7 -17.5 0 -17.5 0 4.3 -3.6z"/>
  <path d="M320.8 426.4 l4.2 -3.6 0 -26.3 0 -26.3 -4.2 -3.6 -4.3 -3.6 22.7 0 22.7 0 0.6 3.3 c2.6 15.5 2.8 20.4 0.6 16.9 -0.4 -0.7 -3.4 -5.1 -6.7 -9.7 l-5.9 -8.5 -4.7 0 -4.8 0 0 14 0 14 3.3 0 c2.6 0 4 -0.9 7.4 -4.7 l4.2 -4.8 0 11 0.1 11 -3.5 -4 c-1.9 -2.2 -3.4 -4.3 -3.5 -4.7 0 -0.5 -1.8 -0.8 -4 -0.8 l-4 0 0 16 0 16 6.3 0 6.2 0 6.5 -10 c3.6 -5.5 6.9 -10 7.3 -10 0.4 0 0.5 1.5 0.2 3.3 -0.6 3.7 -2.5 16.8 -2.5 18 0 0.4 -10.9 0.7 -24.2 0.7 l-24.2 0 4.2 -3.6z"/>
  <path d="M379.8 426.4 l4.2 -3.6 0 -26.3 0 -26.3 -4.2 -3.6 -4.3 -3.6 22.7 0 22.7 0 0.6 3.3 c2.6 15.5 2.8 20.4 0.6 16.9 -0.4 -0.7 -3.4 -5.1 -6.7 -9.7 l-5.9 -8.5 -4.7 0 -4.8 0 0 14 0 14 3.3 0 c2.6 0 4 -0.9 7.4 -4.7 l4.2 -4.8 0 11 0.1 11 -3.5 -4 c-1.9 -2.2 -3.4 -4.3 -3.5 -4.7 0 -0.5 -1.8 -0.8 -4 -0.8 l-4 0 0 16 0 16 6.3 0 6.2 0 6.5 -10 c3.6 -5.5 6.9 -10 7.3 -10 0.4 0 0.5 1.5 0.2 3.3 -0.6 3.7 -2.5 16.8 -2.5 18 0 0.4 -10.9 0.7 -24.2 0.7 l-24.2 0 4.2 -3.6z"/>
  <path d="M563.6 427.5 c-6.1 -2.2 -10.8 -6.6 -14.6 -13.9 -3.1 -6.1 -3.5 -7.8 -3.8 -16.6 -0.7 -17.3 5 -29.5 16.4 -35 3.9 -1.9 5.7 -2.2 12.4 -1.8 6.5 0.4 8.8 1 12.7 3.4 9.2 5.7 14.3 16.7 14.3 30.9 0 16.2 -6.5 28.5 -17.7 33.2 -4.1 1.7 -14.7 1.6 -19.7 -0.2z m15.3 -3.2 c7 -5.9 6.7 -39.4 -0.5 -54 -2.8 -5.9 -5.4 -7.8 -9.1 -6.8 -4.1 1 -6.6 8.1 -7.1 20.8 -0.7 17.3 2.7 33.4 8.5 39.1 3 3 5.3 3.3 8.2 0.9z"/>
  <path d="M481.8 424.4 l4.2 -3.6 0 -26.3 0 -26.3 -4.2 -3.6 -4.3 -3.6 20.6 0 c19.5 0 20.8 0.1 24.9 2.3 7.2 3.8 10.1 12.7 6.5 19.7 -1.6 3 -7.4 8 -9.3 8 -0.7 0 -1.2 0.4 -1.2 0.9 0 0.5 3.4 7.4 7.6 15.3 4.7 9 8.9 15.5 11.2 17.6 l3.6 3.3 -10.8 -0.3 -10.8 -0.3 -8.7 -16.5 -8.6 -16.5 -0.3 13.2 -0.3 13.2 3.8 3.5 3.8 3.5 -16 0.1 -16 0 4.3 -3.6z m32 -34.1 c0.3 -1 0.6 -5.2 0.6 -9.3 0 -8.7 -1.8 -13.1 -6.4 -15.5 -5.9 -3.1 -6 -2.9 -6 12.5 l0 14 5.5 0 c4.4 0 5.7 -0.4 6.3 -1.7z"/>
  <path d="M607.7 423.8 c3.6 -3.8 5.2 -7.5 15 -33.6 6 -16.1 11.4 -29.4 11.8 -29.5 0.5 -0.1 6 13.3 12.3 29.8 9.6 25.3 11.9 30.6 15 33.8 l3.6 3.7 -15.7 0 -15.7 0 3.7 -3.4 3.7 -3.3 -2.1 -5.4 -2 -5.4 -9.3 0 -9.2 0 -1.9 4.7 -1.8 4.7 4.7 4 4.7 4.1 -10.5 0 -10.4 0 4.1 -4.2z m25.2 -25 c-1.7 -4.6 -3.4 -9.1 -3.6 -10 -0.3 -1 -0.9 -1.8 -1.3 -1.8 -0.4 0 -1 0.8 -1.3 1.8 -0.2 0.9 -1.9 5.4 -3.6 10 l-3 8.2 7.9 0 7.9 0 -3 -8.2z"/>
  <path d="M739.8 424.4 l4.2 -3.6 0 -28.9 c0 -34.7 0.3 -34.3 -11 -18.4 -4.1 5.8 -7.8 10.5 -8.2 10.5 -0.4 0 -0.5 -1.2 -0.3 -2.7 0.6 -3.7 2.5 -18.2 2.5 -19.4 0 -0.5 10.1 -0.9 24.5 -0.9 l24.4 0 0.5 3.3 c2.2 13.4 2.7 21.4 1.3 19.6 -0.2 -0.2 -3.6 -5 -7.6 -10.6 -4 -5.7 -7.9 -10.3 -8.7 -10.3 -1.2 0 -1.4 4.8 -1.4 29.1 l0 29.2 3.8 3.3 3.7 3.3 -16 0 -16 0.1 4.3 -3.6z"/>
  <path d="M789.8 424.4 l4.2 -3.6 0 -26.3 0 -26.3 -4.2 -3.6 -4.3 -3.6 22.7 0 22.7 0 0.6 3.3 c2.6 15.5 2.8 20.4 0.6 16.9 -0.4 -0.7 -3.4 -5.1 -6.7 -9.7 l-5.9 -8.5 -4.7 0 -4.8 0 0 14 0 14 3.3 0 c2.6 0 4 -0.9 7.4 -4.7 l4.2 -4.8 0 11 0.1 11 -3.5 -4 c-1.9 -2.2 -3.4 -4.3 -3.5 -4.7 0 -0.5 -1.8 -0.8 -4 -0.8 l-4 0 0 16 0 16 6.3 0 6.2 0 6.5 -10 c3.6 -5.5 6.9 -10 7.3 -10 0.4 0 0.5 1.5 0.2 3.3 -0.6 3.7 -2.5 16.8 -2.5 18 0 0.4 -10.9 0.7 -24.2 0.7 l-24.2 0 4.2 -3.6z"/>
  <path d="M848.8 424.4 l4.2 -3.6 0 -26.3 0 -26.3 -4.2 -3.6 -4.3 -3.6 20.6 0 c19.5 0 20.8 0.1 24.9 2.3 7.2 3.8 10.1 12.7 6.5 19.7 -1.6 3 -7.4 8 -9.3 8 -0.7 0 -1.2 0.4 -1.2 0.9 0 0.5 3.4 7.4 7.6 15.3 4.7 9 8.9 15.5 11.2 17.6 l3.6 3.3 -10.8 -0.3 -10.8 -0.3 -8.7 -16.5 -8.6 -16.5 -0.3 13.2 -0.3 13.2 3.8 3.5 3.8 3.5 -16 0.1 -16 0 4.3 -3.6z m32 -34.1 c0.3 -1 0.6 -5.2 0.6 -9.3 0 -8.7 -1.8 -13.1 -6.4 -15.5 -5.9 -3.1 -6 -2.9 -6 12.5 l0 14 5.5 0 c4.4 0 5.7 -0.4 6.3 -1.7z"/>
  <path d="M253 344.8 c-0.5 -2.3 -6.6 -24.3 -9.3 -33.6 -4.8 -16.1 -5.7 -22 -5.7 -38.6 0 -22.5 3.9 -42.9 11.4 -59.1 1.8 -3.9 7.4 -14 12.5 -22.3 13.1 -21.7 18 -33.4 22 -53.2 6.2 -30.1 5.2 -55.2 -3.3 -83.2 -2.4 -7.7 -9.6 -40.5 -9.6 -43.5 0 -1 21.8 -1.3 105.9 -1.3 95.6 0 105.9 0.2 106.5 1.6 0.3 0.9 0.6 3.6 0.6 6.1 0 6.5 3.4 22.2 8 36.9 8 25.4 9.8 43.2 6.8 67.1 l-1.1 9.5 -4.1 -0.6 c-2.3 -0.4 -7.9 -2.5 -12.5 -4.7 -4.7 -2.2 -18.2 -7.3 -30 -11.4 -11.9 -4.1 -27.4 -9.4 -34.6 -11.9 -7.1 -2.5 -16.9 -5.1 -21.7 -5.8 -7.7 -1 -9.4 -1 -14.2 0.5 -13.3 4.2 -27.5 24.4 -36.4 51.7 -7.5 23.2 -8.8 31.4 -5.2 35 1.1 1.1 2.6 2 3.3 2 3.4 0 11.1 -3.1 30.7 -12.2 28 -13 39.5 -16.9 51.9 -17.6 8.9 -0.5 9.4 -0.4 8.7 1.4 -1.8 4.5 -13.5 46.5 -14.7 52.2 -0.7 3.8 -1.6 6.1 -2.3 5.9 -0.6 -0.3 -5.6 -2.3 -11.1 -4.5 -23 -9.2 -44.5 -14.8 -58.6 -15.4 -6 -0.3 -6.2 -0.2 -9.5 3.7 -10.6 12.3 -25.4 38.7 -25.4 45.3 0 4.2 4.7 9.1 10.6 11.1 5.7 1.9 26.4 2.5 36.9 1.2 24.4 -3.2 47.9 -9.2 76.7 -19.6 8.2 -2.9 15.6 -5.1 16.5 -4.8 1.1 0.4 1.3 1.4 0.9 3.7 -2.6 12.6 -3.8 28.3 -3.3 42.1 0.6 16.7 1.8 23.1 8.3 44.3 2.4 8.1 4.7 16.4 5.1 18.5 l0.6 3.7 -105.7 0 c-58.1 0 -105.6 -0.1 -105.6 -0.2z"/>
  <path d="M109.7 343 c-26.7 -0.5 -25 -0.1 -28.3 -6.3 -2.4 -4.4 -17.1 -44.7 -21 -57.5 -5.7 -18.9 -9.2 -35.6 -11.9 -56.2 -0.3 -2.5 -1 -18 -1.5 -34.5 -1.6 -51.1 -8.1 -83 -29.7 -146 -4.7 -13.7 -8.7 -26.5 -9 -28.3 l-0.5 -3.2 71 0 71 0 3.6 18.8 c12.2 63.9 13.4 89.1 5.5 117.2 -3 11.1 -7.1 19.7 -17.4 37 -11.6 19.5 -13 22.2 -14.9 29.6 -5.6 21.7 -4.2 29.5 8.4 47.4 4.6 6.6 5.2 7.1 4.6 4.2 -0.9 -5.2 1.3 -21.7 4.1 -30.6 3.1 -9.8 11.1 -26.8 18.9 -39.6 22 -36.6 28.5 -66.3 23.9 -109.3 -1.8 -17.1 -4.7 -35.2 -9.1 -57.1 -1.9 -9.3 -3.4 -17.1 -3.4 -17.3 0 -0.2 16.4 -0.3 36.4 -0.3 l36.4 0 0.7 6.8 c1 10.4 4 23.3 9 39.7 7.6 24.8 9.1 40.4 6 63.7 -3 23.3 -7.4 35.1 -21.4 58.8 -12.3 20.6 -14.1 24.1 -18.6 37.1 -6.8 19.5 -8.6 30.5 -8.6 53.9 0 10.5 0.6 19.6 1.5 25.2 1.4 7.8 7.6 31.6 11.1 42.4 l1.3 4.1 -35.2 0.6 c-19.3 0.4 -40.3 0.6 -46.6 0.5 -6.3 -0.1 -22.7 -0.5 -36.3 -0.8z"/>
  <path d="M743.3 334.7 c-1.3 -5 -3.8 -14.2 -5.7 -20.2 -5.4 -17.5 -6.7 -25.4 -6.7 -41 0 -22.9 4 -43.8 11.6 -60.1 1.8 -4.1 7.4 -14.1 12.4 -22.3 13.1 -21.6 18.1 -33.8 22 -53.4 5.5 -27.5 5.4 -49.9 -0.3 -71.4 -8.5 -31.9 -11.5 -44.6 -12.2 -50.2 l-0.7 -6.4 75.9 0.6 c80.1 0.7 85 0.9 108.9 5.8 13.1 2.7 30.3 8.3 39 12.7 4.9 2.4 9.4 5.9 15.1 11.6 21.7 21.7 27.4 43.8 16.8 65.4 -9.3 19.1 -36 37.8 -70.4 49.3 -13.3 4.5 -15 5.3 -15 7.5 0 1.1 2.1 1.4 9.3 1.4 22.6 0.1 41.7 6.1 54.3 17.3 13.8 12.4 19.3 28.4 16 47.3 -1.9 11.1 -8.5 31.3 -13.7 41.9 -13.3 27.3 -48.6 58.8 -74.4 66.4 -3.8 1.2 -14.4 3.2 -23.4 4.6 -16.2 2.5 -16.6 2.5 -86.5 2.5 l-70.1 0 -2.2 -9.3z m82.6 -33.9 c15.1 -3.9 41.3 -15.5 62.6 -27.6 45.8 -26 74.2 -56.3 63.5 -67.7 -6.7 -7.1 -22 -5.5 -50.9 5.1 -20.9 7.8 -55.6 26.6 -75.3 40.9 -4.6 3.3 -13.1 10.7 -19 16.5 -8.3 8.2 -11.3 11.9 -13.7 17 -1.7 3.6 -3.1 7.5 -3.1 8.7 0 3.7 2.1 7.1 5.4 8.8 4 2 19.5 1.2 30.5 -1.7z m35.6 -148.1 c25.8 -9 44.9 -18.4 67 -33.1 25 -16.7 37.7 -28.5 43.1 -40.1 2.8 -5.9 2.9 -7.6 0.9 -11.4 -5.2 -10.1 -31.4 -5.4 -67.3 12 -58.8 28.4 -96.6 64.8 -78.9 76 2.8 1.8 4.4 2 12.7 1.6 8 -0.4 11.6 -1.2 22.5 -5z"/>
  <path d="M488.5 341.8 c-0.2 -0.7 -1.1 -4.2 -2 -7.8 -0.9 -3.6 -3.4 -12.3 -5.6 -19.4 -5.9 -19.4 -7.2 -28.3 -6.6 -46.1 1.1 -31 6.6 -49.2 23.1 -75.8 13.7 -22.2 19.1 -36 24.7 -62.7 2.6 -12.7 3.2 -17.8 3.2 -28.5 0.1 -15.9 -1.5 -24.4 -8.9 -48.8 -6.4 -21.2 -8.4 -29.9 -8.4 -36.7 l0 -4.9 4.8 -0.7 c6.3 -0.9 133.9 0.3 156.2 1.6 20.8 1.1 29.7 3.1 42.8 9.6 23.7 11.6 38.8 34.7 43.3 66.2 1.8 12.7 0.7 38.8 -2.1 48.2 -6 20.5 -19.6 34.9 -44.2 46.4 -18.6 8.8 -36.9 12.9 -72.5 16.1 -6.7 0.6 -7.3 0.9 -7.3 2.9 0 4 5.1 12.5 10.3 17.2 6.3 5.7 13.9 9.4 27.7 13.3 13.8 4 22.6 5.3 33.2 5 4.8 -0.2 9 0 9.3 0.2 0.3 0.3 -0.2 5.3 -1.1 11 -2.1 13.9 -2.1 37 0 48.4 1 5 3.9 16.7 6.7 26 2.8 9.4 5.2 17.8 5.5 18.8 0.5 1.6 -1.6 1.7 -34.3 1.7 l-34.9 0 -3.5 -3.7 c-11.4 -12.2 -19.4 -26.4 -28.4 -50.8 -10.9 -29.7 -16.5 -43.3 -20.5 -49.3 -5.1 -7.9 -13.8 -15.7 -21.3 -19.3 -6.5 -3 -17.7 -5.9 -23.3 -5.9 l-3.2 0 -2.1 11.3 c-5.9 31.9 -5.6 58.1 0.9 81.7 2.1 7.5 9.5 23.8 14.5 31.8 l2.6 4.2 -39.1 0 c-30.4 0 -39.2 -0.3 -39.5 -1.2z m115.3 -175.9 c30.7 -10 60.1 -25.7 87.5 -46.7 25.6 -19.6 34.5 -39.2 19.6 -43.2 -5 -1.4 -11.2 -0.7 -23.6 2.5 -44.8 11.7 -104.3 48.9 -117.8 73.8 -3.2 5.7 -3.7 11.9 -1.4 14.2 5.6 5.7 17 5.4 35.7 -0.6z"/>
 </g>
</svg>