<?xml version="1.0" encoding="utf-8"?>
<!DOCTYPE svg PUBLIC "-//W3C//DTD SVG 1.0//EN" "http://www.w3.org/TR/2001/REC-SVG-20010904/DTD/svg10.dtd">
<svg version="1.0" xmlns="http://www.w3.org/2000/svg" width="278px" height="85px" viewBox="0 0 278 85" preserveAspectRatio="xMidYMid meet">
 <g fill="#000000">
  <path d="M0 42.5 l0 -42.5 139 0 139 0 0 42.5 0 42.5 -139 0 -139 0 0 -42.5z m108.7 3.1 c1.7 -8.2 3.4 -16.4 3.8 -18.2 l0.6 -3.4 -6.6 0 -6.5 0 0 3.8 c0 3 -2.7 17.7 -5.5 30 -0.5 2.1 -1 2.2 -10.5 2.2 l-10 0 0 -3.3 c0 -1.8 1.5 -9.9 3.4 -18 l3.3 -14.7 -6.3 0 c-6 0 -6.4 0.2 -6.4 2.3 0 2.1 -5.5 29.8 -6.5 32.5 -0.3 0.8 -3.3 1.2 -10 1.2 l-9.5 0 0 -4.2 c0 -2.4 1.4 -10.1 3 -17.2 1.7 -7.2 3 -13.3 3 -13.8 0 -0.4 -2.9 -0.8 -6.5 -0.8 l-6.5 0 0 3 c0 1.6 -1.2 8.9 -2.6 16.1 -1.4 7.1 -2.3 13.7 -2 14.5 0.3 0.8 1.6 1.9 2.8 2.4 1.3 0.5 17.8 0.8 37.3 0.7 l35 -0.2 3.2 -14.9z m43.7 2.2 c1.6 -7.3 3.2 -15.4 3.8 -18 l1 -4.7 10.6 -0.4 c5.9 -0.1 -0.8 -0.3 -14.8 -0.3 -14 0 -21.6 0.2 -16.7 0.3 8.4 0.4 8.7 0.5 8.7 2.8 0 2 -5.1 26.5 -6.6 31.8 -0.5 1.5 0.2 1.7 5.4 1.7 l5.9 0 2.7 -13.2z m87.3 10.6 c2 -1.5 3.2 -3.7 4.3 -7.8 1.3 -5.4 1.3 -5.9 -0.3 -7.1 -1 -0.7 -1.7 -2.5 -1.7 -4.6 0.1 -2.7 0.7 -3.8 3.3 -5.4 4.3 -2.7 4.9 -7.1 1.2 -8.5 -1.5 -0.6 -13.9 -1 -29.1 -1 l-26.4 0 0 2.3 c0 1.3 -1.3 9.1 -3 17.2 -1.6 8.1 -3 15.4 -3 16.2 0 1.2 4.2 1.4 25.9 1.1 24.5 -0.3 26.1 -0.4 28.8 -2.4z"/>
  <path d="M198.3 54 c0.4 -3.3 1 -7.2 1.3 -8.5 l0.6 -2.5 16.1 0 16 0 -0.6 7.5 c-0.3 4.1 -0.8 7.9 -1.2 8.5 -0.4 0.6 -6.7 1 -16.7 1 l-16.1 0 0.6 -6z"/>
  <path d="M202 37.9 c0 -2.2 0.5 -6 1.1 -8.5 l1.1 -4.4 15.9 0 15.9 0 0 4.1 c0 2.2 -0.5 6 -1.1 8.5 l-1.1 4.4 -15.9 0 -15.9 0 0 -4.1z"/>
 </g>
 <g fill="#ffffff">
  <path d="M30.5 63.1 c-4.9 -2 -5 -3 -1.5 -20.7 2.9 -15.2 3.1 -16.7 1.6 -18.3 -0.9 -1 -1.6 -2.1 -1.6 -2.4 0 -0.4 5.2 -0.7 11.5 -0.7 9.6 0 11.5 0.2 11.5 1.5 0 0.9 -1.6 8.5 -3.5 16.9 -1.9 8.5 -3.5 15.9 -3.5 16.5 0 1.6 12.9 1.5 13.5 -0.1 0.3 -0.7 1.8 -7.8 3.5 -15.7 l3 -14.5 -2.2 -2.3 -2.1 -2.3 12.1 0 c12.2 0 12.2 0 11.7 2.3 -2.2 9.5 -7.5 33.1 -7.5 33.4 0 0.2 3.1 0.3 6.9 0.3 5.8 0 7.1 -0.3 7.5 -1.7 0.2 -1 1.7 -8 3.2 -15.5 2.6 -12.9 2.7 -13.8 1.1 -15.6 -0.9 -1 -1.7 -2.2 -1.7 -2.5 0 -0.4 5.2 -0.7 11.6 -0.7 l11.6 0 -0.7 3.8 c-0.3 2 -2.3 11.6 -4.3 21.2 l-3.7 17.5 -38 0.2 c-20.9 0.1 -38.9 -0.2 -40 -0.6z"/>
  <path d="M134.1 62.8 c0 -0.7 1.7 -8.7 3.8 -17.8 l3.7 -16.5 -8.1 -0.5 c-7 -0.4 -8.6 -0.9 -11.3 -3.2 -1.8 -1.5 -3.2 -2.9 -3.2 -3.2 0 -0.3 14.2 -0.6 31.5 -0.6 33.4 0 32.2 -0.2 30.9 4.7 -0.6 2.2 -1.1 2.3 -10.9 2.3 l-10.3 0 -1 4.8 c-0.6 2.6 -2.2 10.7 -3.8 18 l-2.7 13.2 -9.4 0 c-6.8 0 -9.3 -0.3 -9.2 -1.2z"/>
  <path d="M181 62.2 c0 -1 1.5 -9.5 3.4 -18.8 3.4 -16.7 3.4 -16.9 1.5 -19 -1 -1.1 -1.9 -2.3 -1.9 -2.7 0 -0.4 14.3 -0.7 31.8 -0.7 37.1 0 36.8 0 36.5 7.5 -0.2 4.9 -2.5 8.3 -6.5 9.7 -0.9 0.4 -0.5 1.1 1.2 2.5 2.4 2 2.4 2.2 1.2 8.3 -1.8 8.7 -2.7 10.6 -5.9 12.7 -2.4 1.6 -5.8 1.8 -32 2.1 -28.1 0.3 -29.3 0.2 -29.3 -1.6z m46.3 -5.9 c0.3 -0.5 0.8 -2.9 1.2 -5.5 l0.7 -4.8 -13 0 -13.1 0 -0.6 3.8 c-0.4 2 -0.9 4.5 -1.2 5.5 -0.4 1.6 0.7 1.7 12.6 1.7 7.1 0 13.2 -0.3 13.4 -0.7z m4.6 -21.7 c0.6 -2.5 1.1 -5 1.1 -5.5 0 -0.7 -4.5 -1.1 -12.9 -1.1 l-12.9 0 -1.1 4.4 c-0.6 2.5 -1.1 5 -1.1 5.5 0 0.7 4.5 1.1 12.9 1.1 l12.9 0 1.1 -4.4z"/>
 </g>
</svg>