<?xml version="1.0" encoding="utf-8"?>
<!DOCTYPE svg PUBLIC "-//W3C//DTD SVG 1.0//EN" "http://www.w3.org/TR/2001/REC-SVG-20010904/DTD/svg10.dtd">
<svg version="1.0" xmlns="http://www.w3.org/2000/svg" width="700px" height="300px" viewBox="0 0 700 300" preserveAspectRatio="xMidYMid meet">
 <g fill="#ffffff">
  <path d="M102.6 167.8 c0.4 -0.7 3.6 -5.4 7.1 -10.4 3.5 -5.1 6.3 -9.8 6.3 -10.6 0 -0.7 -1.7 -3.4 -3.7 -6 -4.8 -5.9 -16 -20.2 -19.7 -25.1 l-2.8 -3.7 24.8 0 24.9 0.1 12.5 15.5 c6.9 8.6 14 17.6 15.8 20.1 l3.3 4.4 -2.3 3.2 c-1.3 1.7 -2.7 3.9 -3.3 4.7 -0.5 0.9 -2.1 3.3 -3.3 5.3 l-2.4 3.7 -29 0 c-22.8 0 -28.8 -0.3 -28.2 -1.2z"/>
  <path d="M221.3 159.8 c3.5 -5.1 8.4 -12.2 10.9 -15.8 7 -10.2 18.6 -26.8 20.5 -29.5 l1.8 -2.4 20.8 -0.1 c11.4 0 20.7 0.3 20.7 0.6 0 0.3 -3.3 5.2 -7.3 10.7 -4 5.6 -12.8 18.2 -19.6 28 l-12.4 17.7 -20.9 0 -20.9 0 6.4 -9.2z"/>
  <path d="M266.6 167.8 c0.4 -0.7 2.5 -3.9 4.6 -7 l3.9 -5.8 38 0 c30.1 0 37.9 0.3 37.3 1.3 -1.6 2.7 -7.9 11.2 -8.9 11.9 -0.5 0.4 -17.8 0.8 -38.3 0.8 -29.6 0 -37.2 -0.3 -36.6 -1.2z"/>
  <path d="M404 168.5 c0 -0.2 2.4 -3.8 5.3 -7.9 2.8 -4.2 8.1 -11.8 11.7 -17 3.6 -5.2 7 -9.6 7.5 -9.8 0.6 -0.2 13.7 -0.1 29.2 0.2 l28.2 0.5 -12.1 17.3 -12 17.2 -28.9 0 c-15.9 0 -28.9 -0.2 -28.9 -0.5z"/>
  <path d="M512.7 167.6 c0.4 -0.8 9.4 -13.6 19.8 -28.5 l19 -27 26.8 0 c21.2 -0.1 26.7 0.2 26.1 1.2 -0.5 0.6 -3.5 5 -6.8 9.7 -3.3 4.7 -8.5 12.1 -11.5 16.6 -3.1 4.4 -8.9 12.8 -13 18.7 l-7.5 10.7 -26.8 0 c-22.8 0 -26.8 -0.2 -26.1 -1.4z"/>
  <path d="M285.3 140.8 l4.5 -6.3 31.6 -0.3 31.6 -0.2 -4.4 6.2 -4.3 6.3 -31.8 0.3 -31.7 0.2 4.5 -6.2z"/>
  <path d="M168.7 137.4 l-6.7 -8.4 17.6 -8.5 17.7 -8.5 23.1 0.1 23.1 0 -7.5 3.8 c-4.1 2 -19.1 9.7 -33.3 16.9 -14.1 7.3 -26 13.2 -26.5 13.1 -0.4 0 -3.7 -3.8 -7.5 -8.5z"/>
  <path d="M296.6 124.8 c0.4 -0.7 2.6 -3.9 4.8 -7 l4.1 -5.7 37.8 -0.1 c30 0 37.7 0.3 37.1 1.3 -0.4 0.6 -2.5 3.8 -4.7 7 l-4 5.7 -37.9 0 c-30.1 0 -37.8 -0.3 -37.2 -1.2z"/>
  <path d="M385.6 124.8 c0.4 -0.7 2.5 -3.9 4.7 -7 l4 -5.8 72 0 c57.4 0 71.7 0.3 71 1.2 -0.6 0.7 -2.9 3.9 -5.2 7.1 l-4.2 5.7 -71.5 0 c-56.9 0 -71.4 -0.3 -70.8 -1.2z"/>
 </g>
</svg>