<?xml version="1.0" encoding="utf-8"?>
<!DOCTYPE svg PUBLIC "-//W3C//DTD SVG 1.0//EN" "http://www.w3.org/TR/2001/REC-SVG-20010904/DTD/svg10.dtd">
<svg version="1.0" xmlns="http://www.w3.org/2000/svg" width="1200px" height="628px" viewBox="0 0 1200 628" preserveAspectRatio="xMidYMid meet">
 <g fill="#000000">
  <path d="M0 314 l0 -314 600 0 600 0 0 314 0 314 -600 0 -600 0 0 -314z m546.6 151.5 c3.1 -10.2 3.4 -14.5 1.2 -20.4 -1.2 -3 -3.6 -8.3 -5.4 -11.8 -2.2 -4.1 -3.4 -7.7 -3.3 -10.1 l0 -3.7 20.7 -13.5 c17.3 -11.3 39.5 -27.2 50.2 -35.9 l2.5 -2.1 -5.5 1.9 c-10.7 3.7 -28.2 11.3 -56 24.3 -13 6.1 -15.5 7 -19 6.6 -3.2 -0.3 -3.4 -0.5 -9.6 -16.3 -3.5 -8.8 -6.3 -17.6 -6.3 -19.5 -0.1 -2.8 1.1 -4.9 5.5 -10.5 16 -19.8 40.1 -53.4 48.1 -67 9.5 -15.9 10.6 -21.4 5.3 -25.9 -12.7 -10.6 -43.9 -5.5 -65.3 10.8 l-5.9 4.4 -0.1 9.8 c-0.2 9 -0.5 10.4 -3.2 15.3 -3.3 5.9 -10.4 12.3 -15.9 14.1 -3 1 -3.4 1.5 -4 5.8 -0.8 6.5 1.7 22.4 5 30.8 1.5 3.8 2.8 8.9 3.1 11.4 0.3 4.4 0.2 4.7 -7.3 13 -14.2 15.7 -43.2 51 -49 59.5 -5.1 7.5 -5.6 8.7 -5 11.9 0.9 4.8 6.3 11.6 11.4 14.4 l4.2 2.4 11.3 -5.6 c6.1 -3 21.3 -11.2 33.7 -18 15.7 -8.8 23.5 -12.6 25.8 -12.6 1.7 0 3.2 0.3 3.2 0.8 0 1.4 17.1 32.4 21.2 38.5 3.8 5.6 4.2 5.9 5.5 4.1 0.7 -1 2 -4.1 2.9 -6.9z m-311.3 -8.3 c4.8 -2.6 8.7 -7.4 8.7 -10.8 0 -3.9 -3.3 -6.5 -16.3 -12.9 -23.1 -11.3 -32.7 -21.8 -34.3 -37.4 -1.8 -16.8 8 -36 30.1 -59 4.9 -5.2 12.6 -12.1 17 -15.3 12.6 -9.3 15.5 -11.8 17.1 -15.1 2.1 -4 0.5 -7 -5.2 -9.7 -6 -2.7 -8.7 -2.5 -15.3 1.2 -13.1 7.5 -23.1 15.6 -38 30.7 -17.7 18.1 -29 37.6 -33 56.9 -6 29 17.2 59.9 54.9 73.1 6.1 2.2 7.4 2 14.3 -1.7z m135.8 -3.5 c2.6 -1.8 4.1 -4.2 6.8 -10.7 1.8 -4.7 3.7 -9.4 4.2 -10.5 0.4 -1.1 1.5 -4 2.3 -6.5 0.8 -2.5 2.6 -7.4 3.9 -11 2.3 -6 3.3 -8.9 8.9 -24 1.1 -3 2.4 -6.4 2.8 -7.5 0.5 -1.1 1.6 -4 2.4 -6.5 0.8 -2.5 2.5 -7.4 3.9 -11 1.4 -3.6 4.1 -10.8 6.1 -16 3 -8.3 14.2 -37.7 16.6 -43.6 0.7 -1.8 2.5 -2.3 13.7 -3.8 19.7 -2.8 30.2 -5.3 34.3 -8.1 7 -4.8 7.5 -9.5 1.7 -13.7 -3 -2.2 -4 -2.3 -16.2 -2 -22.1 0.5 -44.1 3.6 -67.5 9.6 -5.2 1.3 -13.1 2.7 -17.6 3.1 -10.2 0.9 -10.9 1.3 -8.9 5.1 0.8 1.6 2.2 5.4 3.1 8.4 2.7 9.5 1.4 8.9 17.2 7.5 l8.2 -0.8 0 3 c0 1.6 -0.6 4.3 -1.4 5.9 -0.8 1.6 -3.3 7.9 -5.6 13.9 -2.3 6.1 -5.6 14.6 -7.3 19 -3 7.9 -3.1 8.4 -3.8 31.5 -0.7 24.8 -1.2 30.3 -3.6 38.7 -2.6 9.4 -10.2 17.1 -20.3 20.6 -4.8 1.6 -5.4 3.4 -2.3 6.9 4.4 5 13 6.1 18.4 2.5z m308 -14.1 c12 -3.9 20.9 -7.1 25.9 -9.3 11.8 -5.2 23.9 -11.6 25.9 -13.7 3.1 -3.2 3 -7.4 0 -9.7 -4.1 -3.2 -8.1 -3.3 -17.1 -0.5 -13.2 4 -27.4 7.6 -30.3 7.6 -2.8 0 -2.8 0 -2.2 -5.7 0.7 -8 10.2 -38.1 21.7 -69.3 1.7 -4.7 3.8 -10.5 4.6 -13 0.8 -2.5 1.9 -5.4 2.4 -6.5 3.4 -7.4 10 -30.1 9.5 -32.5 -1.1 -5.2 -7.7 -9.4 -13 -8.4 -3.9 0.7 -11.1 6.4 -12.1 9.7 -0.4 1.2 -2 4.9 -3.5 8.3 -1.5 3.3 -4 9.4 -5.4 13.5 -1.4 4.1 -3 8.3 -3.5 9.4 -1.3 2.8 -14.1 41.7 -18 54.5 -1.7 5.8 -4.2 14 -5.6 18.4 l-2.4 7.9 2.9 3.2 c4.5 5.2 6.4 12.1 5.9 22.3 -0.2 5.7 -0.9 9.9 -2.1 12.1 -0.9 1.9 -1.7 3.8 -1.7 4.3 0 1.8 8.2 0.6 18.1 -2.6z m-43.9 -5.1 c6.3 -3.5 8.3 -6 8.3 -10.5 0 -4.6 -1.6 -6.6 -7.4 -9.2 -10.3 -4.6 -18.8 -8.9 -23 -11.7 -5.1 -3.4 -4.6 -3.5 -14.6 3.9 -3.8 2.8 -8.2 5.9 -9.7 6.8 -1.6 0.9 -2.8 1.9 -2.8 2.2 0.1 1 13.2 10.4 18.8 13.3 7.8 4.2 21.3 8.8 23.8 8.2 1.1 -0.2 4.1 -1.6 6.6 -3z m-286 -12.2 c7.7 -5.1 9.3 -15.1 8.5 -52.3 -1 -41.8 -4.8 -61.4 -12.7 -65.5 -5.8 -3 -16.8 -1.7 -25.2 2.9 -3.9 2.2 -15.6 14.5 -28.3 29.8 -4.3 5.1 -8.7 10.4 -9.9 11.8 -1.1 1.4 -3.3 4.2 -4.8 6.2 -1.5 2 -3.3 4.2 -4 5 -6.5 6.9 -38.8 49.3 -38.8 50.8 0 0.5 4.2 2.9 9.3 5.3 l9.2 4.4 2.4 -3.6 c1.4 -2 2.7 -3.8 3.1 -4.1 0.3 -0.3 2.5 -3.1 4.9 -6.2 4.6 -6.2 4.5 -6.2 18.5 -7.8 4.9 -0.6 13.9 -2 20 -3.2 6.1 -1.1 14.1 -2.2 17.8 -2.5 l6.8 -0.5 -0.6 11.8 c-0.6 11.3 -0.5 12 1.6 14.7 2.3 2.9 5.1 4.4 10.5 5.6 4.1 1 7.3 0.2 11.7 -2.6z m572.2 -14.1 c0.6 -0.4 2.9 -1.4 5.1 -2.1 4 -1.2 13.2 -4.6 17 -6.1 1.1 -0.5 9.2 -3.6 18 -7.1 8.8 -3.4 18.8 -7.5 22.3 -9.1 3.4 -1.5 6.5 -2.8 6.7 -2.8 1.9 0 40.9 -19.1 51.7 -25.4 23.5 -13.6 36.8 -25.8 36.8 -33.8 0 -8 -11.9 -20.3 -23.5 -24.2 -16 -5.5 -65.4 -9.5 -96.7 -8 l-13.8 0.7 0 9.2 c0 6.5 -0.6 11 -2 15.6 -4.6 14.2 -14.2 31.5 -27.2 48.6 l-8 10.5 -0.9 9.2 c-0.6 5 -1.4 11 -2 13.4 -0.5 2.3 -0.9 5.1 -0.9 6.1 0 2 2.7 5.4 5 6.4 1.9 0.8 10.8 0 12.4 -1.1z m-88.5 -2.8 c15.4 -5.3 35.8 -21.3 54.1 -42.4 3.6 -4.1 6.7 -7.7 7 -8 1 -0.9 10.6 -14.3 14.9 -20.7 5.5 -8.3 11.4 -20.2 14.1 -28.7 2.2 -6.8 2.2 -6.8 0.3 -9.4 -3.7 -5 -9.5 -5 -20 0 -5.9 2.7 -6.4 3.2 -9.3 9.6 -12.8 27.6 -30.3 52.7 -50.1 71.8 -10.5 10.1 -17.3 14.4 -22.6 14.4 -4.2 0 -4.3 -0.1 -4.3 -3.3 0 -6.6 3.5 -19.9 8.8 -33.2 4.4 -11.2 8.9 -19.7 15.5 -29.9 l5.1 -7.8 -4.1 -3.8 c-5.4 -5.1 -11.1 -6.7 -15.5 -4.4 -1.7 0.9 -4.4 2.8 -5.9 4.3 -2.7 2.5 -2.7 2.8 -1.7 8.1 1.3 6.7 0.4 22.5 -1.6 30.3 -3.1 11.9 -9.9 23.5 -20.1 34.6 -4.7 5 -5.5 6.4 -4.9 8.5 0.7 2.9 6.2 8.2 10.3 9.8 7.3 3 21.7 3.1 30 0.2z m-76 -16 c9.1 -5 20.2 -13.6 26.2 -20.2 12.3 -13.8 18.8 -33.1 14.4 -43.4 -1.7 -4.3 -7.6 -9.6 -11.3 -10.3 -1.5 -0.3 -4.7 -1.6 -7.2 -2.8 -7.4 -3.7 -19.6 -2.5 -30.3 2.9 -3.9 2 -14.4 9.1 -16.8 11.3 -1.6 1.5 -3.6 6.3 -7.5 18.1 -0.8 2.5 -1.9 5.4 -2.3 6.5 -0.5 1.1 -1.4 3.6 -2.1 5.5 -0.7 1.9 -1.6 4.4 -2 5.5 -1.1 2.4 -7 20.1 -7 20.7 0 0.2 4.3 0.2 9.5 0 11.4 -0.5 18.4 1.3 24.8 6.3 2.3 1.9 4.4 3.4 4.6 3.4 0.2 0.1 3.4 -1.5 7 -3.5z m-187.3 -28 c2.2 -0.9 6.2 -2.6 8.9 -3.8 2.8 -1.3 7.8 -3.4 11.3 -4.7 6.1 -2.3 6.5 -2.7 10.3 -9.6 2.2 -3.9 6 -9.9 8.4 -13.2 6.3 -8.6 24.2 -26.8 31.5 -32.1 9.2 -6.7 16 -13 16.6 -15.6 1.1 -4.3 -3.8 -8.6 -11.1 -10 -2.7 -0.5 -4.6 0 -8.3 1.9 -9.8 5.1 -23.1 15.6 -35.3 27.7 -15.1 15 -24.8 28.7 -31.2 44 -2.4 5.7 -5.8 17 -5.2 17 0.2 0 2 -0.7 4.1 -1.6z m-279.2 -95.9 c-0.1 -0.5 -3.7 -3.8 -8 -7.1 -7.6 -5.9 -7.9 -6.3 -8 -10.3 0 -2.4 -0.7 -4.9 -1.6 -5.7 -1.4 -1.5 -1.6 -0.9 -2.3 5.4 -0.6 6.6 -0.9 7.1 -3.3 7.4 -2 0.2 -0.4 1.4 8.4 6 10.2 5.3 15 6.7 14.8 4.3z m-36.8 -21.1 c-0.3 -0.8 -1 -1.4 -1.6 -1.4 -1.4 0 -1.3 2.7 0.2 5.3 l1.3 2.2 0.3 -2.3 c0.2 -1.3 0.1 -3 -0.2 -3.8z m-34.6 -0.5 c1.1 -0.6 0.8 -0.8 -1.2 -0.9 -2.5 0 -2.8 -0.3 -2.9 -3.7 0 -4 -0.4 -3.5 -2.7 3.4 l-1 3.2 3.2 -0.6 c1.7 -0.3 3.8 -0.9 4.6 -1.4z m-19.7 -4.2 c0.4 -1 -0.3 -1.2 -2.5 -0.9 -2.1 0.3 -2.6 0.7 -1.7 1.3 2 1.3 3.6 1.1 4.2 -0.4z m50.7 -1.8 c0 -2.8 -0.3 -3.1 -2.2 -2.5 -1.3 0.3 -4.1 0.6 -6.2 0.6 -4.7 0 -4.4 0.5 2 3 6.5 2.4 6.4 2.4 6.4 -1.1z m-14.2 -2.6 c-1 -0.2 -2.6 -0.2 -3.5 0 -1 0.3 -0.2 0.5 1.7 0.5 1.9 0 2.7 -0.2 1.8 -0.5z m25.1 -18.6 c0.1 -2.3 -0.3 -3.6 -0.9 -3.2 -0.5 0.3 -1 3 -0.9 5.8 0 3.8 0.3 4.7 0.9 3.2 0.5 -1.1 0.9 -3.7 0.9 -5.8z m-59.2 -4.5 l-5.9 -0.3 0.4 -5 c0.6 -5.5 0.1 -5.8 -1.2 -0.7 -0.5 1.8 -1.2 4.3 -1.5 5.6 -0.7 2.1 -0.5 2.2 5.4 2.2 6 0 6.1 0.1 6.2 2.8 0 2.6 0.1 2.6 1.3 -0.8 l1.3 -3.5 -6 -0.3z m-41.7 -13.4 c-0.7 -5.7 -1.7 -11 -2.2 -11.8 -0.7 -1.1 -0.8 -0.8 -0.4 1 0.5 2.5 2.6 19.5 2.6 21.4 0 0.5 0.3 0.6 0.7 0.3 0.3 -0.4 0 -5.3 -0.7 -10.9z m60.8 -0.6 l-5.7 -0.3 -0.3 -3.7 -0.3 -3.7 -1.6 4.8 -1.6 4.7 5.8 0 5.9 0 0.1 4.3 0.1 4.2 1.6 -5 1.7 -5 -5.7 -0.3z m43.4 -1.4 c-0.9 -3 -1 -2.7 -1 3.2 0 5.9 0.1 6.2 1 3.3 0.8 -2.3 0.8 -4.3 0 -6.5z m-57.3 -27.7 c0.1 -1.1 -1.2 -1.2 -6.6 -0.6 -9 0.9 -11.5 2.4 -3 1.8 l6.7 -0.6 0.1 3.9 0.1 3.9 1.3 -3.5 c0.7 -1.9 1.4 -4.1 1.4 -4.9z m35.8 6.9 c-1.6 -0.5 -4.7 -0.5 -7 0 -3.8 0.7 -3.6 0.8 2.8 0.8 5.4 0 6.3 -0.2 4.2 -0.8z m-88 -9.2 c2.4 -0.3 2.4 -0.4 -1.6 -2.7 -2.3 -1.2 -4.4 -2.1 -4.7 -1.9 -0.2 0.3 0.4 2.6 1.3 5.3 1.6 4.1 1.8 4.4 2.1 2.2 0.2 -1.9 1 -2.7 2.9 -2.9z m69.4 3.1 c-1.9 -1.5 -2.6 -1.7 -3.2 -0.7 -1.5 2.2 -1 2.8 2.4 2.8 l3.2 -0.1 -2.4 -2z m-5.7 -23.8 c0.3 -0.5 -0.1 -1.4 -0.9 -2.1 -1.3 -1 -1.5 -0.9 -1.5 0.9 0 2.1 1.4 2.8 2.4 1.2z"/>
  <path d="M454 437 c0 -2.5 3.7 -7.6 19.6 -27 18.4 -22.5 19.8 -24 22.9 -24 3.3 0 3.4 0.2 6.5 8.2 4.2 10.7 5.8 18.3 4.4 20.6 -0.6 0.9 -11.4 6.9 -23.9 13.4 -25.2 13 -29.5 14.3 -29.5 8.8z"/>
  <path d="M504.8 340.8 c-0.8 -3.4 -1.3 -11.2 -1.3 -21.8 0 -15 0.2 -16.9 2.3 -21.4 2.7 -6 8.3 -11.1 17.8 -16.6 9.5 -5.4 17.2 -8 23.9 -8 5.5 0 5.5 0 5.5 3 0 5.5 -19.3 40 -34.5 61.5 -5.4 7.6 -6.3 8.5 -9.2 8.5 -2.9 0 -3.2 -0.3 -4.5 -5.2z"/>
  <path d="M295 367.4 c0 -3.2 1.7 -6.2 7.5 -13 0.6 -0.7 4.2 -5.3 8 -10.3 6.8 -8.8 7.1 -9 11.3 -9.1 l4.2 0 0 15.4 0 15.4 -4.2 0.7 c-5.4 0.8 -13.4 2.5 -17.2 3.6 -1.6 0.5 -4.4 0.9 -6.2 0.9 -3.2 0 -3.4 -0.2 -3.4 -3.6z"/>
  <path d="M938.4 368.3 c1.4 -12.2 13.1 -51.8 16.4 -55.5 1.4 -1.6 3.8 -1.8 23.1 -1.8 23.9 0 45.2 1.8 63.6 5.2 8.4 1.5 9.5 2.3 9.5 6.1 0 5.5 -7.2 10.9 -27 20.4 -19.6 9.4 -34.6 15.6 -58 24 -6.9 2.4 -14.2 5.1 -16.3 5.9 -2 0.8 -5.6 1.4 -7.9 1.4 l-4.1 0 0.7 -5.7z"/>
  <path d="M728 368.9 c0 -5.6 2.2 -9.7 9.1 -17.3 10.4 -11.3 21.4 -18.1 31.4 -19.2 l5.8 -0.7 -0.5 4.9 c-0.4 3.9 -1.7 6.8 -6.2 13.6 -7.9 12.1 -12.5 15.8 -26.9 21.7 -1.5 0.6 -5 1.1 -7.7 1.1 l-5 0 0 -4.1z"/>
 </g>
 <g fill="#ffffff">
  <path d="M538.3 475.5 c-3.7 -4.4 -10.3 -15.7 -18.5 -31.2 l-6.4 -12.1 -22.4 12.4 c-28.7 15.9 -44.6 23.7 -48 23.6 -4 -0.1 -10.3 -3.6 -13.5 -7.4 -3.9 -4.6 -5.5 -8.9 -5.5 -14.5 0 -4.2 0.7 -5.9 5.6 -13 5.5 -8.2 29.6 -37.6 46.8 -57.2 5 -5.7 9 -11.1 8.9 -12 -0.1 -0.9 -1.5 -5.3 -3.1 -9.9 -3.5 -9.9 -5.7 -25.2 -4.7 -33.8 0.6 -6.1 0.8 -6.3 4.1 -7.4 5.5 -1.8 12.6 -8.2 15.9 -14.1 3.1 -5.7 3.9 -13.7 2.2 -20.5 -0.8 -3 -0.5 -3.4 6 -8.3 15.1 -11.4 31.3 -17.1 48.8 -17.1 28.7 0 34.1 10.8 18.4 37.2 -8.1 13.8 -32.3 47.3 -49.9 69.4 l-4.1 5.2 6.2 15.8 c3.4 8.8 6.5 16.3 6.9 16.7 0.7 0.8 3.7 -0.4 17 -6.6 52.3 -24.3 70 -30.6 70 -24.7 0 2.2 -6.7 8.1 -23.5 20.5 -9.5 7.1 -46.7 32.3 -52.1 35.3 -1.7 0.9 -1.5 1.6 2.8 10.3 2.5 5.2 5.1 11.1 5.8 13.2 2.8 8.8 -3.8 33.7 -8.9 33.7 -1.1 0 -3.2 -1.6 -4.8 -3.5z m-58.2 -50.1 c12.3 -6.3 22.9 -12.1 23.6 -12.7 1 -0.9 0.6 -3.1 -1.8 -10 -5.4 -16.2 -3.4 -16.6 -20.1 4 -8.1 9.9 -17 20.7 -19.8 24.1 -2.8 3.4 -5 6.2 -4.8 6.2 0.2 0 10.5 -5.2 22.9 -11.6z m39.6 -96.9 c6.8 -10.1 21.8 -35.5 26.2 -44.2 l4.1 -8.3 -2.5 0 c-6.6 0 -24.2 8.7 -32.2 15.9 -2.4 2.1 -5.3 6 -6.5 8.7 -2 4.3 -2.3 6.5 -2.3 18.4 0 8.1 0.5 15.6 1.4 18.8 l1.3 5.2 3.2 -4.2 c1.8 -2.4 5.1 -7 7.3 -10.3z"/>
  <path d="M218 461.9 c-28.1 -9.9 -49.2 -30.3 -54.5 -52.6 -6.1 -25.4 5.9 -56.2 32.6 -83.4 12 -12.2 15.8 -15.5 25.4 -22.4 12.5 -9.1 17.6 -11.5 23.7 -11.5 10.2 0 16.8 4.4 16.8 11.2 0 7.2 -1.8 9.2 -18.5 21.6 -21.6 15.9 -43 44.4 -46.4 61.7 -3.5 17.2 7.1 31 33.7 44.1 7.7 3.8 13.9 7.5 14.8 8.8 5 7.7 1.4 16.4 -8.8 21.5 -7.1 3.6 -10.9 3.8 -18.8 1z"/>
  <path d="M358.6 458.9 c-5.8 -1.4 -10 -5 -11.5 -9.9 -1.5 -5 -0.9 -5.8 5.4 -7.9 9.6 -3.3 17.3 -11.1 19.8 -20.4 2.4 -8.4 2.9 -13.9 3.6 -38.7 0.7 -23.1 0.8 -23.6 3.8 -31.5 1.7 -4.4 5 -12.9 7.3 -19 2.3 -6 4.8 -12.3 5.6 -13.8 l1.3 -2.9 -5.2 0.8 c-2.9 0.5 -7.8 0.9 -11.1 0.9 -6.7 0 -6.3 0.4 -9.6 -10 -1.2 -3.8 -3.3 -8.4 -4.6 -10.2 -2.3 -3.1 -3.2 -6.3 -1.6 -6.3 4.9 -0.2 25.5 -3.4 31.7 -5 22.8 -5.9 44.7 -8.8 69 -9.2 15.3 -0.3 16.1 -0.2 19.2 2 7 5 6.3 14.2 -1.7 19.7 -4.1 2.8 -14.6 5.3 -34.3 8.1 -11.2 1.5 -13 2 -13.7 3.8 -2.4 5.9 -13.6 35.3 -16.6 43.6 -2 5.2 -4.7 12.4 -6.1 16 -1.4 3.6 -3.1 8.5 -3.9 11 -0.8 2.5 -1.9 5.4 -2.4 6.5 -0.4 1.1 -1.7 4.5 -2.8 7.5 -5.6 15.1 -6.6 18 -8.9 24 -1.3 3.6 -3.1 8.5 -3.9 11 -0.8 2.5 -1.9 5.4 -2.4 6.5 -0.4 1.1 -2 5.2 -3.5 9 -1.4 3.9 -3.3 8 -4.1 9.2 -2.9 4.6 -11.6 6.9 -18.8 5.2z"/>
  <path d="M660.7 446 c-5.8 -1.1 -6.4 -2.3 -3.5 -6.7 1.3 -2.1 3 -5.3 3.6 -7.2 2.8 -8.2 0 -21 -5.8 -26.6 -1.7 -1.6 -3 -3.5 -3 -4.2 0 -0.7 1.3 -5.5 2.9 -10.6 1.7 -5 4.4 -13.9 6.1 -19.7 3.8 -12.6 16.7 -51.7 18 -54.5 0.5 -1.1 2.1 -5.3 3.5 -9.4 2.5 -7.1 7 -17.8 9.7 -23 0.7 -1.3 3 -3.7 5 -5.4 2.9 -2.3 4.9 -3 10 -3.4 5.5 -0.4 6.8 -0.2 9.8 1.9 7.4 5.1 7.7 10.6 1.5 29.5 -2.5 7.6 -5 14.7 -5.5 15.8 -0.5 1.1 -1.6 4 -2.4 6.5 -0.8 2.5 -2.9 8.3 -4.6 13 -8.4 22.8 -19.6 57 -21.4 65.7 l-0.7 3.1 9.3 -2.4 c5.1 -1.4 13 -3.6 17.6 -5 9.9 -3.1 15.4 -3.3 20.6 -0.9 4.4 2.1 6 5.4 5.3 10.8 -0.7 5.5 -3.6 8 -15.1 13.6 -16.2 7.8 -20.5 9.5 -39.1 15.6 -11.6 3.7 -16.5 4.5 -21.8 3.5z"/>
  <path d="M616 438.4 c-4.1 -1.4 -10.2 -4 -13.5 -5.7 -7.2 -3.7 -22.5 -15.3 -22.5 -17 0 -0.7 2 -2.5 4.4 -4 2.4 -1.5 7.7 -5.2 11.6 -8.1 12.7 -9.4 11.7 -9.1 18.6 -4.5 3.2 2.1 9.3 5.5 13.4 7.5 4.1 2 9.5 4.6 12 5.8 6.2 2.9 8.8 8.2 7.1 14.6 -1.5 5.6 -3.5 7.8 -10.4 11.3 -6.7 3.4 -11 3.4 -20.7 0.1z"/>
  <path d="M334.5 428.1 c-5.8 -1.6 -8.3 -3 -10.4 -5.8 -2.1 -2.6 -2.2 -3.6 -1.9 -14.6 l0.3 -11.9 -3.5 0.5 c-1.9 0.3 -8.5 1.5 -14.6 2.6 -6.1 1.1 -15.1 2.5 -20 3.1 -14 1.6 -13.9 1.6 -18.5 7.8 -2.4 3.1 -4.6 5.9 -4.9 6.2 -0.3 0.3 -2.1 2.7 -3.9 5.3 -1.8 2.6 -3.6 4.7 -3.9 4.5 -16.7 -8.2 -24.5 -12.3 -24.9 -13.3 -0.2 -0.7 0.2 -2.1 1.1 -3.2 0.8 -1 5.7 -7.4 10.8 -14.3 14.2 -19 25.5 -33.4 29.6 -37.8 0.7 -0.8 2.5 -3 4 -5 1.5 -2 3.7 -4.8 4.8 -6.2 1.2 -1.4 5.6 -6.7 9.9 -11.8 12.7 -15.2 24.4 -27.6 28.3 -29.8 5.7 -3.2 13.1 -4.9 20.7 -4.8 14.6 0.2 17.3 4.5 21.5 34.4 1.7 11.4 2.4 62.9 1.2 73.3 -1.4 10.7 -3.2 14.8 -8.2 18.1 -4.3 2.8 -12.4 4.1 -17.5 2.7z m-28 -62.3 c7.2 -1.5 13.8 -2.7 15.3 -2.7 0.9 -0.1 1.2 -3.3 1.2 -12.6 0 -9.4 -0.3 -12.5 -1.2 -12.5 -0.7 0.1 -4.4 4.2 -8.3 9.1 -3.8 5 -7.4 9.6 -8 10.3 -3.2 3.7 -7.5 9.6 -7.5 10.1 0 0.4 0.8 0.4 1.8 0 0.9 -0.3 4 -1.1 6.7 -1.7z"/>
  <path d="M907.5 412.8 c-6.6 -2.4 -8.4 -7.1 -6.2 -16.6 0.9 -3.7 2 -10.8 2.6 -15.8 l0.9 -9.2 8 -10.5 c13.2 -17.4 22.6 -34.3 27.1 -48.7 2 -6.3 2.3 -8.7 1.8 -16.1 l-0.6 -8.7 16.7 -0.6 c35.3 -1.5 84.3 2.4 100.7 8 9 3 19 11.6 22.1 19 1.9 4.5 1.8 12.4 -0.3 16.5 -5.2 10.6 -26.5 25.3 -59.8 41.4 -16.2 7.8 -26.3 12.5 -27 12.5 -0.2 0 -3.3 1.3 -6.7 2.8 -3.5 1.6 -13.5 5.7 -22.3 9.1 -8.8 3.5 -16.9 6.7 -18 7.1 -4.1 1.7 -11.1 4.2 -15.5 5.6 -2.5 0.8 -5.4 1.9 -6.5 2.4 -3 1.4 -9.7 3 -12 2.9 -1.1 0 -3.3 -0.5 -5 -1.1z m39.2 -43.2 c2.1 -0.8 9.4 -3.5 16.3 -5.9 12.1 -4.4 34.9 -13.3 42 -16.4 21.6 -9.7 37 -18.3 41.3 -23.1 1.8 -2 1.8 -2.1 0 -3 -1.7 -0.8 -8.8 -2.4 -17.4 -3.7 -12.6 -1.9 -35.1 -3.5 -51 -3.5 -16.5 0 -18.8 0.2 -20.1 1.8 -4 4.5 -18.4 55.2 -15.7 55.2 0.5 0 2.6 -0.6 4.6 -1.4z"/>
  <path d="M806.5 410.1 c-9.2 -1.7 -15.3 -6.6 -17.8 -14.1 l-1.5 -4.5 6.3 -6.7 c10.8 -11.4 17.9 -23.3 21 -35 2.1 -8.2 2.8 -19.6 1.5 -25.3 -2.3 -10.4 -2.4 -9.8 1.3 -13.2 1.9 -1.7 4.8 -3.8 6.5 -4.7 6.1 -3.2 15.2 -1.4 21.3 4.1 5.4 4.9 5.4 8.6 -0.5 17.3 -7.8 11.8 -16.8 30.6 -20.6 43.5 -0.9 3.3 -4 16.4 -4 17.2 0 1.2 3.4 -0.3 8 -3.4 12.1 -8 30.2 -28 43.9 -48.3 7.5 -11.1 12.6 -20.2 19.1 -34.2 2.9 -6.4 3.4 -6.9 9.8 -10 5.7 -2.7 7.8 -3.2 14.5 -3.3 7.4 0 8 0.2 10.3 2.8 6.6 7.7 -1.7 28.9 -23 58.2 -2.8 3.9 -5.3 7.2 -5.6 7.5 -0.3 0.3 -3.4 3.9 -7 8 -18.3 21.1 -38.4 36.9 -54.1 42.5 -5 1.8 -23.3 2.8 -29.4 1.6z"/>
  <path d="M746 395.5 c-6.5 -7.8 -21.3 -11.4 -32.6 -8 -4.5 1.4 -5 1.3 -6.2 -0.2 -0.7 -1 -1 -2.4 -0.6 -3.3 0.3 -0.8 2.1 -6.2 4 -12 1.9 -5.8 3.9 -11.4 4.3 -12.5 0.5 -1.1 1.4 -3.6 2.1 -5.5 0.7 -1.9 1.6 -4.4 2.1 -5.5 0.4 -1.1 1.5 -4 2.3 -6.5 5.9 -17.7 5.6 -17.3 15.2 -23.7 12.3 -8.4 18.8 -10.6 31.4 -10.7 7.9 -0.1 10.3 0.3 14 2.1 2.5 1.2 5.7 2.5 7.2 2.8 3.7 0.7 9.6 6 11.3 10.3 2 4.8 1.9 16.4 -0.3 24.3 -5 17.9 -20.6 35 -41.9 46.1 -8.1 4.2 -10.4 4.6 -12.3 2.3z m-8.3 -26.6 c8.6 -3.5 13.2 -6.1 17 -9.4 4.2 -3.6 14.4 -18 15.7 -22.2 0.6 -2 0.4 -2 -2.6 -1.3 -4.9 1.2 -6.8 2 -12.7 5.7 -10.1 6.4 -22.1 19.4 -23.6 25.6 -0.6 2.3 -0.4 2.7 1.3 2.7 1.2 0 3.4 -0.5 4.9 -1.1z"/>
  <path d="M561.9 367.8 c-0.7 -7.3 3.8 -22.2 10.3 -34.3 12 -22.3 40.6 -51 62.1 -62.2 4.1 -2.2 5.7 -2.5 11 -2 7.8 0.6 12 2.8 14.1 7.2 3.4 7.2 -0.4 12.9 -16.4 24.5 -7.3 5.3 -25.2 23.5 -31.5 32.1 -2.4 3.3 -6.2 9.3 -8.4 13.2 -3.8 6.9 -4.2 7.3 -10.3 9.6 -3.5 1.3 -8.5 3.4 -11.3 4.7 -2.7 1.2 -6.7 2.9 -8.7 3.8 -2.1 0.9 -5.4 2.3 -7.3 3.1 -2.7 1.2 -3.5 1.2 -3.6 0.3z"/>
  <path d="M269.5 262.4 c-10.4 -5.2 -19.6 -10.2 -20.2 -11.1 -0.7 -0.9 -1.3 -2.7 -1.3 -4 0 -2.4 -0.2 -2.5 -10.7 -6.8 l-4.2 -1.8 -3.6 3.1 c-5.1 4.6 -8.7 6.1 -15.3 6.8 -7.2 0.8 -7.9 0 -5.8 -6.4 2.1 -6.4 4.9 -15.2 7.6 -24.2 1.2 -4.1 2.6 -8.5 3.1 -9.8 1.8 -4.7 1.3 -5.2 -5 -5.2 -3.3 0 -6.2 -0.4 -6.6 -0.9 -0.3 -0.5 0.6 -4.5 2 -8.8 3.2 -10.1 3.9 -12.3 6.5 -21.1 1.2 -4 2.7 -7.5 3.4 -7.8 2 -0.8 6.8 1.5 10.3 4.8 2.8 2.7 3.8 3.1 10 3.2 20.6 0.6 33.4 19.1 26.3 37.8 -1.1 2.9 -2 7.1 -2 9.2 0 5.1 -3.2 11.7 -7.6 15.6 -3.9 3.4 -3.8 4.2 0.6 6 3.3 1.4 4 4.4 1.3 5.5 -1.4 0.5 -0.8 1.2 3 3.2 2.7 1.3 5.1 2.2 5.4 1.9 0.3 -0.3 -0.2 -0.8 -1.1 -1.2 -2.3 -0.9 -2 -2.9 0.7 -4.7 l2.2 -1.5 -2.1 -2.3 c-2.8 -3.1 -3.3 -5 -2.2 -7.1 1.4 -2.9 4.5 -2.1 9.4 2.4 4.2 3.8 4.5 4.6 4.2 8.1 -0.4 3.7 -0.1 4.1 5.1 8.1 9.5 7.1 12.3 10.3 11.6 12.8 -0.6 2.2 -4 5.8 -5.4 5.8 -0.3 0 -9.1 -4.3 -19.6 -9.6z m-43.7 -27.7 c3.4 -3.3 3.2 -3.2 16 -2.6 3.9 0.2 5.9 -0.2 8 -1.7 3.7 -2.8 6.2 -8 6.2 -13.3 0 -2.5 0.9 -6.4 2.1 -8.8 4.4 -9.2 0.5 -21 -8.6 -25.7 -2.7 -1.4 -6 -2.1 -10.5 -2.2 -9.6 -0.2 -9.6 -0.2 -12.1 -2.9 -1.3 -1.3 -2.7 -2.5 -3 -2.5 -0.3 0 -1.3 2.8 -2.3 6.3 -1 3.4 -2.2 7.2 -2.7 8.5 -1.9 4.8 -1.3 5.3 5.1 5.1 3.3 -0.1 6.3 0 6.6 0.4 0.3 0.3 -0.6 4.5 -2.1 9.4 -4.8 15.7 -6.7 21.7 -8.6 27.7 -1.1 3.3 -1.9 6.3 -1.9 6.8 0 1.3 4.1 -1.1 7.8 -4.5z"/>
  <path d="M151.5 258 c-0.4 -1.4 0.7 -4.7 3.6 -10.3 5.1 -10.1 5.7 -10.9 8.2 -10.5 4.4 0.7 4.2 3.1 -0.9 12.9 -4.2 7.9 -5.4 9.4 -7.6 9.7 -1.9 0.2 -2.8 -0.2 -3.3 -1.8z"/>
  <path d="M116.1 253.1 c-0.7 -1.3 -0.7 -2.3 0.2 -3.4 1 -1.3 17.2 -11.7 18.2 -11.7 0.2 0 4.1 -2.3 8.6 -5.1 8.8 -5.5 11.1 -5.6 11.7 -0.8 0.3 2.2 -1.6 3.6 -16.7 12.7 -9.3 5.6 -17.9 10.2 -19 10.2 -1.1 0 -2.5 -0.8 -3 -1.9z"/>
  <path d="M196.5 245.2 c-0.6 -0.5 -5.5 -2.8 -11 -5.2 -12.4 -5.4 -17.8 -9 -21.6 -14.3 -5.4 -7.4 -6.4 -10.9 -9 -30.2 -0.8 -6.3 -2.3 -11.6 -5 -17.6 -2 -4.7 -4.3 -10.5 -5 -12.9 -1.2 -4 -1.2 -4.4 1 -6.1 2.7 -2.2 2.9 -2.2 16.9 6.3 6.2 3.7 11.7 6.8 12.1 6.8 0.4 0 2.3 -0.7 4.1 -1.6 6 -3.1 16.7 -5.3 25.8 -5.3 5.4 -0.1 6.2 0.1 6.2 1.8 0 1.4 -7 25.3 -10.3 35.1 -0.3 0.8 -0.8 2.7 -1.1 4.3 l-0.6 2.7 6.5 0 c3.7 0 6.5 0.4 6.5 1 0 0.6 -1.6 6.3 -3.6 12.8 -3.5 11.5 -5 16.4 -6.1 21 -0.5 2.2 -3.9 3.1 -5.8 1.4z m2.6 -19 l2.7 -9.2 -6.4 0 c-8.3 0 -8.4 2.4 0.3 -25.5 1.9 -6 3.9 -12.5 4.5 -14.3 0.5 -1.8 0.8 -3.6 0.5 -3.9 -0.9 -0.8 -11.8 1.7 -18.3 4.3 -7.3 2.9 -10.1 3 -13.4 0.4 -1.4 -1.1 -2.9 -2 -3.3 -2 -0.5 0 -2.9 -1.4 -5.3 -3.1 -2.5 -1.7 -4.7 -2.9 -4.9 -2.7 -0.3 0.2 0.5 2.1 1.6 4.2 3.3 6.2 4.7 11.5 6.3 24.5 2.5 19.2 6 24.6 20.2 31.4 4.3 2.1 8.6 4.2 9.4 4.7 2.7 1.6 3.4 0.5 6.1 -8.8z"/>
  <path d="M130 222.5 c-1.5 -1.8 -1 -4.5 1 -5.5 0.8 -0.5 5 -1.3 9.3 -2 7.9 -1.2 10.7 -0.6 10.7 2.4 -0.1 2.7 -2.2 3.9 -9.6 5.2 -9.9 1.7 -9.9 1.7 -11.4 -0.1z"/>
  <path d="M233.2 162.8 c-2 -2 -1.4 -3.5 2.3 -6.4 4.3 -3.2 7.7 -8.6 6.9 -10.8 -0.9 -2.4 -8 -2.1 -14.5 0.6 -3 1.3 -8.5 4 -12.3 6 -7.5 4.1 -8.6 4.4 -10.4 2.6 -2.1 -2.1 -1.3 -3.7 3.3 -6.4 5.1 -2.9 5.6 -4.1 2.1 -5 -6.9 -1.7 -17.9 5.6 -19.3 12.8 -1 4.8 -3.3 6.8 -5.7 4.9 -2 -1.7 -2 -5.1 -0.1 -9.9 2.9 -6.7 9.2 -11.8 17.7 -14.2 5.7 -1.5 9.4 -0.9 14.6 2.4 2.2 1.4 4.3 2.1 4.8 1.7 4 -3.4 20.8 -4.9 23.6 -2.1 2.7 2.8 4 8.4 2.6 11.6 -1.6 3.8 -5.4 8.4 -9.1 11.2 -3.5 2.5 -4.8 2.7 -6.5 1z"/>
 </g>
</svg>